<svg width="27" height="26" viewBox="0 0 27 26" fill="none" xmlns="http://www.w3.org/2000/svg">
<path d="M10.7678 15.2337C8.28611 12.7521 7.72576 10.2704 7.59935 9.27616C7.56403 9.00124 7.65863 8.72553 7.85532 8.53022L9.86359 6.52284C10.159 6.22761 10.2114 5.76749 9.99 5.41336L6.79245 0.448259C6.54748 0.0561286 6.04448 -0.0853949 5.63097 0.121465L0.497763 2.53902C0.163376 2.70367 -0.0333062 3.05895 0.00465983 3.42974C0.273625 5.98491 1.38759 12.2662 7.56035 18.4394C13.7331 24.6126 20.0135 25.7261 22.57 25.9951C22.9408 26.033 23.296 25.8363 23.4607 25.5019L25.8782 20.3687C26.0843 19.9561 25.9437 19.4545 25.5532 19.2091L20.5881 16.0124C20.2342 15.7907 19.7741 15.8428 19.4787 16.1379L17.4713 18.1462C17.276 18.3429 17.0003 18.4375 16.7253 18.4022C15.7311 18.2757 13.2494 17.7154 10.7678 15.2337Z" fill="white"/>
<path d="M20.6222 13.8967C20.1271 13.8967 19.7257 13.4953 19.7257 13.0002C19.7215 9.28825 16.7134 6.28021 13.0015 6.27601C12.5064 6.27601 12.105 5.87461 12.105 5.37946C12.105 4.88431 12.5064 4.48291 13.0015 4.48291C17.7033 4.4881 21.5136 8.29836 21.5188 13.0002C21.5188 13.4953 21.1174 13.8967 20.6222 13.8967Z" fill="white"/>
<path d="M25.105 13.8966C24.6098 13.8966 24.2084 13.4952 24.2084 13C24.2015 6.81347 19.1881 1.80002 13.0015 1.7931C12.5064 1.7931 12.105 1.3917 12.105 0.896552C12.105 0.4014 12.5064 0 13.0015 0C20.178 0.00790574 25.9936 5.82358 26.0015 13C26.0015 13.2378 25.9071 13.4658 25.7389 13.634C25.5708 13.8021 25.3428 13.8966 25.105 13.8966Z" fill="white"/>
</svg>
