<svg width="26" height="26" viewBox="0 0 26 26" fill="none" xmlns="http://www.w3.org/2000/svg">
<path d="M17.2349 13.1332L26.0001 18.6744V7.35791L17.2349 13.1332Z" fill="white"/>
<path d="M0 7.35791V18.6744L8.76525 13.1332L0 7.35791Z" fill="white"/>
<path d="M24.3751 4.0625H1.62508C0.814203 4.0625 0.170703 4.667 0.0488281 5.44538L13.0001 13.9783L25.9513 5.44538C25.8295 4.667 25.186 4.0625 24.3751 4.0625Z" fill="white"/>
<path d="M15.7463 14.1147L13.4469 15.6292C13.3104 15.7185 13.156 15.7624 13 15.7624C12.844 15.7624 12.6896 15.7185 12.5531 15.6292L10.2538 14.113L0.052002 20.5659C0.177127 21.3378 0.817377 21.9374 1.625 21.9374H24.375C25.1826 21.9374 25.8229 21.3378 25.948 20.5659L15.7463 14.1147Z" fill="white"/>
</svg>
