<svg width="24" height="28" viewBox="0 0 24 28" fill="none" xmlns="http://www.w3.org/2000/svg">
<path d="M20.7809 18.324C20.0068 17.2135 19.62 15.9624 19.62 14.5717C19.62 13.3041 19.985 12.1428 20.7136 11.0884C21.1063 10.5163 21.7458 9.85467 22.6321 9.10293C22.0488 8.3852 21.4655 7.8243 20.8818 7.42035C19.8274 6.6913 18.6326 6.32678 17.2978 6.32678C16.5015 6.32678 15.5309 6.51738 14.387 6.89906C13.2876 7.28043 12.4854 7.47133 11.9808 7.47133C11.5992 7.47133 10.8253 7.30318 9.65865 6.96648C8.4808 6.62989 7.48795 6.46175 6.68029 6.46175C4.75082 6.46175 3.15788 7.26953 1.90153 8.88475C0.633922 10.5226 0 12.6203 0 15.178C0 17.8927 0.8247 20.7138 2.47363 23.6417C4.14495 26.5471 5.83331 28 7.5384 28C8.1105 28 8.85092 27.8092 9.75943 27.4278C10.6682 27.058 11.4646 26.8726 12.149 26.8726C12.8779 26.8726 13.725 27.0521 14.6897 27.4109C15.7104 27.7695 16.4959 27.949 17.0455 27.949C18.4813 27.949 19.923 26.8496 21.3699 24.651C22.312 23.2488 23.002 21.8467 23.4394 20.4443C22.4411 20.1412 21.555 19.4345 20.7809 18.324Z" fill="#F9F9F9"/>
<path d="M15.0595 5.3172C15.7664 4.61049 16.288 3.83636 16.6246 2.99516C16.9498 2.15384 17.1121 1.3909 17.1121 0.706532C17.1121 0.661799 17.1097 0.605632 17.1036 0.538268C17.0985 0.470962 17.0955 0.415031 17.0955 0.370122C17.0842 0.33641 17.0703 0.274703 17.0536 0.185061C17.0368 0.0954183 17.0229 0.0337117 17.0114 0C15.037 0.460177 13.6349 1.29024 12.8047 2.4906C11.9636 3.70216 11.5259 5.14351 11.4922 6.81495C12.2438 6.74759 12.8269 6.65241 13.2421 6.52893C13.8484 6.32696 14.4534 5.92295 15.0595 5.3172Z" fill="#F9F9F9"/>
</svg>
