<svg width="122" height="44" viewBox="0 0 122 44" fill="none" xmlns="http://www.w3.org/2000/svg">
<path d="M3.052 4.4H8.182C9.514 4.4 10.69 4.67 11.71 5.21C12.73 5.738 13.522 6.482 14.086 7.442C14.65 8.39 14.932 9.476 14.932 10.7C14.932 11.924 14.65 13.016 14.086 13.976C13.522 14.924 12.73 15.668 11.71 16.208C10.69 16.736 9.514 17 8.182 17H3.052V4.4ZM8.11 15.848C9.214 15.848 10.18 15.632 11.008 15.2C11.836 14.756 12.478 14.15 12.934 13.382C13.39 12.602 13.618 11.708 13.618 10.7C13.618 9.692 13.39 8.804 12.934 8.036C12.478 7.256 11.836 6.65 11.008 6.218C10.18 5.774 9.214 5.552 8.11 5.552H4.384V15.848H8.11ZM21.5231 17.09C20.6111 17.09 19.7891 16.886 19.0571 16.478C18.3251 16.058 17.7491 15.482 17.3291 14.75C16.9091 14.018 16.6991 13.19 16.6991 12.266C16.6991 11.342 16.9091 10.514 17.3291 9.782C17.7491 9.05 18.3251 8.48 19.0571 8.072C19.7891 7.664 20.6111 7.46 21.5231 7.46C22.4351 7.46 23.2571 7.664 23.9891 8.072C24.7211 8.48 25.2911 9.05 25.6991 9.782C26.1191 10.514 26.3291 11.342 26.3291 12.266C26.3291 13.19 26.1191 14.018 25.6991 14.75C25.2911 15.482 24.7211 16.058 23.9891 16.478C23.2571 16.886 22.4351 17.09 21.5231 17.09ZM21.5231 15.956C22.1951 15.956 22.7951 15.806 23.3231 15.506C23.8631 15.194 24.2831 14.756 24.5831 14.192C24.8831 13.628 25.0331 12.986 25.0331 12.266C25.0331 11.546 24.8831 10.904 24.5831 10.34C24.2831 9.776 23.8631 9.344 23.3231 9.044C22.7951 8.732 22.1951 8.576 21.5231 8.576C20.8511 8.576 20.2451 8.732 19.7051 9.044C19.1771 9.344 18.7571 9.776 18.4451 10.34C18.1451 10.904 17.9951 11.546 17.9951 12.266C17.9951 12.986 18.1451 13.628 18.4451 14.192C18.7571 14.756 19.1771 15.194 19.7051 15.506C20.2451 15.806 20.8511 15.956 21.5231 15.956ZM42.5706 7.532L38.9886 17H37.7826L34.7946 9.242L31.8066 17H30.6006L27.0366 7.532H28.2606L31.2306 15.578L34.2726 7.532H35.3706L38.3946 15.578L41.4006 7.532H42.5706ZM49.3189 7.46C50.5069 7.46 51.4489 7.808 52.1449 8.504C52.8529 9.188 53.2069 10.19 53.2069 11.51V17H51.9289V11.636C51.9289 10.652 51.6829 9.902 51.1909 9.386C50.6989 8.87 49.9969 8.612 49.0849 8.612C48.0649 8.612 47.2549 8.918 46.6549 9.53C46.0669 10.13 45.7729 10.964 45.7729 12.032V17H44.4949V7.532H45.7189V9.278C46.0669 8.702 46.5469 8.258 47.1589 7.946C47.7829 7.622 48.5029 7.46 49.3189 7.46ZM56.6765 3.644H57.9545V17H56.6765V3.644ZM65.3805 17.09C64.4685 17.09 63.6465 16.886 62.9145 16.478C62.1825 16.058 61.6065 15.482 61.1865 14.75C60.7665 14.018 60.5565 13.19 60.5565 12.266C60.5565 11.342 60.7665 10.514 61.1865 9.782C61.6065 9.05 62.1825 8.48 62.9145 8.072C63.6465 7.664 64.4685 7.46 65.3805 7.46C66.2925 7.46 67.1145 7.664 67.8465 8.072C68.5785 8.48 69.1485 9.05 69.5565 9.782C69.9765 10.514 70.1865 11.342 70.1865 12.266C70.1865 13.19 69.9765 14.018 69.5565 14.75C69.1485 15.482 68.5785 16.058 67.8465 16.478C67.1145 16.886 66.2925 17.09 65.3805 17.09ZM65.3805 15.956C66.0525 15.956 66.6525 15.806 67.1805 15.506C67.7205 15.194 68.1405 14.756 68.4405 14.192C68.7405 13.628 68.8905 12.986 68.8905 12.266C68.8905 11.546 68.7405 10.904 68.4405 10.34C68.1405 9.776 67.7205 9.344 67.1805 9.044C66.6525 8.732 66.0525 8.576 65.3805 8.576C64.7085 8.576 64.1025 8.732 63.5625 9.044C63.0345 9.344 62.6145 9.776 62.3025 10.34C62.0025 10.904 61.8525 11.546 61.8525 12.266C61.8525 12.986 62.0025 13.628 62.3025 14.192C62.6145 14.756 63.0345 15.194 63.5625 15.506C64.1025 15.806 64.7085 15.956 65.3805 15.956ZM76.0549 7.46C77.2909 7.46 78.2389 7.772 78.8989 8.396C79.5589 9.008 79.8889 9.92 79.8889 11.132V17H78.6649V15.524C78.3769 16.016 77.9509 16.4 77.3869 16.676C76.8349 16.952 76.1749 17.09 75.4069 17.09C74.3509 17.09 73.5109 16.838 72.8869 16.334C72.2629 15.83 71.9509 15.164 71.9509 14.336C71.9509 13.532 72.2389 12.884 72.8149 12.392C73.4029 11.9 74.3329 11.654 75.6049 11.654H78.6109V11.078C78.6109 10.262 78.3829 9.644 77.9269 9.224C77.4709 8.792 76.8049 8.576 75.9289 8.576C75.3289 8.576 74.7529 8.678 74.2009 8.882C73.6489 9.074 73.1749 9.344 72.7789 9.692L72.2029 8.738C72.6829 8.33 73.2589 8.018 73.9309 7.802C74.6029 7.574 75.3109 7.46 76.0549 7.46ZM75.6049 16.082C76.3249 16.082 76.9429 15.92 77.4589 15.596C77.9749 15.26 78.3589 14.78 78.6109 14.156V12.608H75.6409C74.0209 12.608 73.2109 13.172 73.2109 14.3C73.2109 14.852 73.4209 15.29 73.8409 15.614C74.2609 15.926 74.8489 16.082 75.6049 16.082ZM92.0353 3.644V17H90.8113V15.128C90.4273 15.764 89.9173 16.25 89.2813 16.586C88.6573 16.922 87.9493 17.09 87.1573 17.09C86.2693 17.09 85.4653 16.886 84.7453 16.478C84.0253 16.07 83.4613 15.5 83.0533 14.768C82.6453 14.036 82.4413 13.202 82.4413 12.266C82.4413 11.33 82.6453 10.496 83.0533 9.764C83.4613 9.032 84.0253 8.468 84.7453 8.072C85.4653 7.664 86.2693 7.46 87.1573 7.46C87.9253 7.46 88.6153 7.622 89.2273 7.946C89.8513 8.258 90.3613 8.72 90.7573 9.332V3.644H92.0353ZM87.2653 15.956C87.9253 15.956 88.5193 15.806 89.0473 15.506C89.5873 15.194 90.0073 14.756 90.3073 14.192C90.6193 13.628 90.7753 12.986 90.7753 12.266C90.7753 11.546 90.6193 10.904 90.3073 10.34C90.0073 9.776 89.5873 9.344 89.0473 9.044C88.5193 8.732 87.9253 8.576 87.2653 8.576C86.5933 8.576 85.9873 8.732 85.4473 9.044C84.9193 9.344 84.4993 9.776 84.1873 10.34C83.8873 10.904 83.7373 11.546 83.7373 12.266C83.7373 12.986 83.8873 13.628 84.1873 14.192C84.4993 14.756 84.9193 15.194 85.4473 15.506C85.9873 15.806 86.5933 15.956 87.2653 15.956ZM104.175 17.09C103.263 17.09 102.441 16.886 101.709 16.478C100.977 16.058 100.401 15.482 99.9814 14.75C99.5614 14.018 99.3514 13.19 99.3514 12.266C99.3514 11.342 99.5614 10.514 99.9814 9.782C100.401 9.05 100.977 8.48 101.709 8.072C102.441 7.664 103.263 7.46 104.175 7.46C105.087 7.46 105.909 7.664 106.641 8.072C107.373 8.48 107.943 9.05 108.351 9.782C108.771 10.514 108.981 11.342 108.981 12.266C108.981 13.19 108.771 14.018 108.351 14.75C107.943 15.482 107.373 16.058 106.641 16.478C105.909 16.886 105.087 17.09 104.175 17.09ZM104.175 15.956C104.847 15.956 105.447 15.806 105.975 15.506C106.515 15.194 106.935 14.756 107.235 14.192C107.535 13.628 107.685 12.986 107.685 12.266C107.685 11.546 107.535 10.904 107.235 10.34C106.935 9.776 106.515 9.344 105.975 9.044C105.447 8.732 104.847 8.576 104.175 8.576C103.503 8.576 102.897 8.732 102.357 9.044C101.829 9.344 101.409 9.776 101.097 10.34C100.797 10.904 100.647 11.546 100.647 12.266C100.647 12.986 100.797 13.628 101.097 14.192C101.409 14.756 101.829 15.194 102.357 15.506C102.897 15.806 103.503 15.956 104.175 15.956ZM116.415 7.46C117.603 7.46 118.545 7.808 119.241 8.504C119.949 9.188 120.303 10.19 120.303 11.51V17H119.025V11.636C119.025 10.652 118.779 9.902 118.287 9.386C117.795 8.87 117.093 8.612 116.181 8.612C115.161 8.612 114.351 8.918 113.751 9.53C113.163 10.13 112.869 10.964 112.869 12.032V17H111.591V7.532H112.815V9.278C113.163 8.702 113.643 8.258 114.255 7.946C114.879 7.622 115.599 7.46 116.415 7.46Z" fill="#F9F9F9"/>
<path d="M10.864 36.084H4.564L3.322 39H0.91L6.58 26.4H8.884L14.572 39H12.124L10.864 36.084ZM10.09 34.248L7.714 28.74L5.356 34.248H10.09ZM21.2864 29.28C22.2224 29.28 23.0564 29.484 23.7884 29.892C24.5324 30.3 25.1144 30.876 25.5344 31.62C25.9544 32.364 26.1644 33.222 26.1644 34.194C26.1644 35.166 25.9544 36.03 25.5344 36.786C25.1144 37.53 24.5324 38.106 23.7884 38.514C23.0564 38.922 22.2224 39.126 21.2864 39.126C19.9904 39.126 18.9644 38.694 18.2084 37.83V42.492H15.9584V29.388H18.1004V30.648C18.4724 30.192 18.9284 29.85 19.4684 29.622C20.0204 29.394 20.6264 29.28 21.2864 29.28ZM21.0344 37.2C21.8624 37.2 22.5404 36.924 23.0684 36.372C23.6084 35.82 23.8784 35.094 23.8784 34.194C23.8784 33.294 23.6084 32.568 23.0684 32.016C22.5404 31.464 21.8624 31.188 21.0344 31.188C20.4944 31.188 20.0084 31.314 19.5764 31.566C19.1444 31.806 18.8024 32.154 18.5504 32.61C18.2984 33.066 18.1724 33.594 18.1724 34.194C18.1724 34.794 18.2984 35.322 18.5504 35.778C18.8024 36.234 19.1444 36.588 19.5764 36.84C20.0084 37.08 20.4944 37.2 21.0344 37.2ZM33.6263 29.28C34.5623 29.28 35.3963 29.484 36.1283 29.892C36.8723 30.3 37.4543 30.876 37.8743 31.62C38.2943 32.364 38.5043 33.222 38.5043 34.194C38.5043 35.166 38.2943 36.03 37.8743 36.786C37.4543 37.53 36.8723 38.106 36.1283 38.514C35.3963 38.922 34.5623 39.126 33.6263 39.126C32.3303 39.126 31.3043 38.694 30.5483 37.83V42.492H28.2983V29.388H30.4403V30.648C30.8123 30.192 31.2683 29.85 31.8083 29.622C32.3603 29.394 32.9663 29.28 33.6263 29.28ZM33.3743 37.2C34.2023 37.2 34.8803 36.924 35.4083 36.372C35.9483 35.82 36.2183 35.094 36.2183 34.194C36.2183 33.294 35.9483 32.568 35.4083 32.016C34.8803 31.464 34.2023 31.188 33.3743 31.188C32.8343 31.188 32.3483 31.314 31.9163 31.566C31.4843 31.806 31.1423 32.154 30.8903 32.61C30.6383 33.066 30.5123 33.594 30.5123 34.194C30.5123 34.794 30.6383 35.322 30.8903 35.778C31.1423 36.234 31.4843 36.588 31.9163 36.84C32.3483 37.08 32.8343 37.2 33.3743 37.2ZM49.7347 39.18C48.7627 39.18 47.8207 39.042 46.9087 38.766C46.0087 38.49 45.2947 38.124 44.7667 37.668L45.5767 35.85C46.0927 36.258 46.7227 36.594 47.4667 36.858C48.2227 37.11 48.9787 37.236 49.7347 37.236C50.6707 37.236 51.3667 37.086 51.8227 36.786C52.2907 36.486 52.5247 36.09 52.5247 35.598C52.5247 35.238 52.3927 34.944 52.1287 34.716C51.8767 34.476 51.5527 34.29 51.1567 34.158C50.7607 34.026 50.2207 33.876 49.5367 33.708C48.5767 33.48 47.7967 33.252 47.1967 33.024C46.6087 32.796 46.0987 32.442 45.6667 31.962C45.2467 31.47 45.0367 30.81 45.0367 29.982C45.0367 29.286 45.2227 28.656 45.5947 28.092C45.9787 27.516 46.5487 27.06 47.3047 26.724C48.0727 26.388 49.0087 26.22 50.1127 26.22C50.8807 26.22 51.6367 26.316 52.3807 26.508C53.1247 26.7 53.7667 26.976 54.3067 27.336L53.5687 29.154C53.0167 28.83 52.4407 28.584 51.8407 28.416C51.2407 28.248 50.6587 28.164 50.0947 28.164C49.1707 28.164 48.4807 28.32 48.0247 28.632C47.5807 28.944 47.3587 29.358 47.3587 29.874C47.3587 30.234 47.4847 30.528 47.7367 30.756C48.0007 30.984 48.3307 31.164 48.7267 31.296C49.1227 31.428 49.6627 31.578 50.3467 31.746C51.2827 31.962 52.0507 32.19 52.6507 32.43C53.2507 32.658 53.7607 33.012 54.1807 33.492C54.6127 33.972 54.8287 34.62 54.8287 35.436C54.8287 36.132 54.6367 36.762 54.2527 37.326C53.8807 37.89 53.3107 38.34 52.5427 38.676C51.7747 39.012 50.8387 39.18 49.7347 39.18ZM62.711 38.478C62.447 38.694 62.123 38.856 61.739 38.964C61.367 39.072 60.971 39.126 60.551 39.126C59.495 39.126 58.679 38.85 58.103 38.298C57.527 37.746 57.239 36.942 57.239 35.886V31.26H55.655V29.46H57.239V27.264H59.489V29.46H62.063V31.26H59.489V35.832C59.489 36.3 59.603 36.66 59.831 36.912C60.059 37.152 60.389 37.272 60.821 37.272C61.325 37.272 61.745 37.14 62.081 36.876L62.711 38.478ZM68.5655 39.126C67.5935 39.126 66.7175 38.916 65.9375 38.496C65.1575 38.076 64.5455 37.494 64.1015 36.75C63.6695 35.994 63.4535 35.142 63.4535 34.194C63.4535 33.246 63.6695 32.4 64.1015 31.656C64.5455 30.912 65.1575 30.33 65.9375 29.91C66.7175 29.49 67.5935 29.28 68.5655 29.28C69.5495 29.28 70.4315 29.49 71.2115 29.91C71.9915 30.33 72.5975 30.912 73.0295 31.656C73.4735 32.4 73.6955 33.246 73.6955 34.194C73.6955 35.142 73.4735 35.994 73.0295 36.75C72.5975 37.494 71.9915 38.076 71.2115 38.496C70.4315 38.916 69.5495 39.126 68.5655 39.126ZM68.5655 37.2C69.3935 37.2 70.0775 36.924 70.6175 36.372C71.1575 35.82 71.4275 35.094 71.4275 34.194C71.4275 33.294 71.1575 32.568 70.6175 32.016C70.0775 31.464 69.3935 31.188 68.5655 31.188C67.7375 31.188 67.0535 31.464 66.5135 32.016C65.9855 32.568 65.7215 33.294 65.7215 34.194C65.7215 35.094 65.9855 35.82 66.5135 36.372C67.0535 36.924 67.7375 37.2 68.5655 37.2ZM77.9891 30.792C78.6371 29.784 79.7771 29.28 81.4091 29.28V31.422C81.2171 31.386 81.0431 31.368 80.8871 31.368C80.0111 31.368 79.3271 31.626 78.8351 32.142C78.3431 32.646 78.0971 33.378 78.0971 34.338V39H75.8471V29.388H77.9891V30.792ZM92.2659 34.248C92.2659 34.404 92.2539 34.626 92.2299 34.914H84.6879C84.8199 35.622 85.1619 36.186 85.7139 36.606C86.2779 37.014 86.9739 37.218 87.8019 37.218C88.8579 37.218 89.7279 36.87 90.4119 36.174L91.6179 37.56C91.1859 38.076 90.6399 38.466 89.9799 38.73C89.3199 38.994 88.5759 39.126 87.7479 39.126C86.6919 39.126 85.7619 38.916 84.9579 38.496C84.1539 38.076 83.5299 37.494 83.0859 36.75C82.6539 35.994 82.4379 35.142 82.4379 34.194C82.4379 33.258 82.6479 32.418 83.0679 31.674C83.4999 30.918 84.0939 30.33 84.8499 29.91C85.6059 29.49 86.4579 29.28 87.4059 29.28C88.3419 29.28 89.1759 29.49 89.9079 29.91C90.6519 30.318 91.2279 30.9 91.6359 31.656C92.0559 32.4 92.2659 33.264 92.2659 34.248ZM87.4059 31.08C86.6859 31.08 86.0739 31.296 85.5699 31.728C85.0779 32.148 84.7779 32.712 84.6699 33.42H90.1239C90.0279 32.724 89.7339 32.16 89.2419 31.728C88.7499 31.296 88.1379 31.08 87.4059 31.08Z" fill="#F9F9F9"/>
</svg>
