<svg width="39" height="36" viewBox="0 0 39 36" fill="none" xmlns="http://www.w3.org/2000/svg">
<ellipse cx="19.4624" cy="17.9317" rx="15.664" ry="12.0492" transform="rotate(-27.5765 19.4624 17.9317)" fill="#2F73DA"/>
<path d="M23.6849 22.0157V23.4077H15.6369V22.3197L20.1969 17.9197C20.7516 17.3864 21.1249 16.9277 21.3169 16.5437C21.5089 16.149 21.6049 15.7544 21.6049 15.3597C21.6049 14.773 21.3969 14.3197 20.9809 13.9997C20.5756 13.669 19.9889 13.5037 19.2209 13.5037C17.9836 13.5037 17.0289 13.909 16.3569 14.7197L15.2689 13.7757C15.7063 13.2424 16.2769 12.8264 16.9809 12.5277C17.6956 12.229 18.4903 12.0797 19.3649 12.0797C20.5383 12.0797 21.4716 12.3624 22.1649 12.9277C22.8583 13.4824 23.2049 14.2397 23.2049 15.1997C23.2049 15.797 23.0769 16.3624 22.8209 16.8957C22.5649 17.429 22.0796 18.037 21.3649 18.7197L17.9409 22.0157H23.6849Z" fill="#F9F9F9"/>
</svg>
