<svg width="94" height="45" viewBox="0 0 94 45" fill="none" xmlns="http://www.w3.org/2000/svg">
<path d="M10.926 10.7H12.204V15.506C11.616 16.022 10.92 16.418 10.116 16.694C9.312 16.97 8.466 17.108 7.578 17.108C6.318 17.108 5.184 16.832 4.176 16.28C3.168 15.728 2.376 14.966 1.8 13.994C1.224 13.01 0.936 11.912 0.936 10.7C0.936 9.488 1.224 8.396 1.8 7.424C2.376 6.44 3.168 5.672 4.176 5.12C5.184 4.568 6.324 4.292 7.596 4.292C8.556 4.292 9.438 4.448 10.242 4.76C11.046 5.06 11.724 5.51 12.276 6.11L11.448 6.956C10.452 5.972 9.186 5.48 7.65 5.48C6.63 5.48 5.706 5.708 4.878 6.164C4.062 6.608 3.42 7.232 2.952 8.036C2.484 8.828 2.25 9.716 2.25 10.7C2.25 11.684 2.484 12.572 2.952 13.364C3.42 14.156 4.062 14.78 4.878 15.236C5.694 15.692 6.612 15.92 7.632 15.92C8.928 15.92 10.026 15.596 10.926 14.948V10.7ZM23.9479 12.662H16.0279C16.0999 13.646 16.4779 14.444 17.1619 15.056C17.8459 15.656 18.7099 15.956 19.7539 15.956C20.3419 15.956 20.8819 15.854 21.3739 15.65C21.8659 15.434 22.2919 15.122 22.6519 14.714L23.3719 15.542C22.9519 16.046 22.4239 16.43 21.7879 16.694C21.1639 16.958 20.4739 17.09 19.7179 17.09C18.7459 17.09 17.8819 16.886 17.1259 16.478C16.3819 16.058 15.7999 15.482 15.3799 14.75C14.9599 14.018 14.7499 13.19 14.7499 12.266C14.7499 11.342 14.9479 10.514 15.3439 9.782C15.7519 9.05 16.3039 8.48 16.9999 8.072C17.7079 7.664 18.4999 7.46 19.3759 7.46C20.2519 7.46 21.0379 7.664 21.7339 8.072C22.4299 8.48 22.9759 9.05 23.3719 9.782C23.7679 10.502 23.9659 11.33 23.9659 12.266L23.9479 12.662ZM19.3759 8.558C18.4639 8.558 17.6959 8.852 17.0719 9.44C16.4599 10.016 16.1119 10.772 16.0279 11.708H22.7419C22.6579 10.772 22.3039 10.016 21.6799 9.44C21.0679 8.852 20.2999 8.558 19.3759 8.558ZM31.5532 16.424C31.3132 16.64 31.0132 16.808 30.6532 16.928C30.3052 17.036 29.9392 17.09 29.5552 17.09C28.6672 17.09 27.9832 16.85 27.5032 16.37C27.0232 15.89 26.7832 15.212 26.7832 14.336V8.612H25.0912V7.532H26.7832V5.462H28.0612V7.532H30.9412V8.612H28.0612V14.264C28.0612 14.828 28.1992 15.26 28.4752 15.56C28.7632 15.848 29.1712 15.992 29.6992 15.992C29.9632 15.992 30.2152 15.95 30.4552 15.866C30.7072 15.782 30.9232 15.662 31.1032 15.506L31.5532 16.424ZM38.5906 7.532H39.8686V17H38.5906V7.532ZM39.2386 5.462C38.9746 5.462 38.7526 5.372 38.5726 5.192C38.3926 5.012 38.3026 4.796 38.3026 4.544C38.3026 4.304 38.3926 4.094 38.5726 3.914C38.7526 3.734 38.9746 3.644 39.2386 3.644C39.5026 3.644 39.7246 3.734 39.9046 3.914C40.0846 4.082 40.1746 4.286 40.1746 4.526C40.1746 4.79 40.0846 5.012 39.9046 5.192C39.7246 5.372 39.5026 5.462 39.2386 5.462ZM48.4106 16.424C48.1706 16.64 47.8706 16.808 47.5106 16.928C47.1626 17.036 46.7966 17.09 46.4126 17.09C45.5246 17.09 44.8406 16.85 44.3606 16.37C43.8806 15.89 43.6406 15.212 43.6406 14.336V8.612H41.9486V7.532H43.6406V5.462H44.9186V7.532H47.7986V8.612H44.9186V14.264C44.9186 14.828 45.0566 15.26 45.3326 15.56C45.6206 15.848 46.0286 15.992 46.5566 15.992C46.8206 15.992 47.0726 15.95 47.3126 15.866C47.5646 15.782 47.7806 15.662 47.9606 15.506L48.4106 16.424ZM59.318 17.09C58.406 17.09 57.584 16.886 56.852 16.478C56.12 16.058 55.544 15.482 55.124 14.75C54.704 14.018 54.494 13.19 54.494 12.266C54.494 11.342 54.704 10.514 55.124 9.782C55.544 9.05 56.12 8.48 56.852 8.072C57.584 7.664 58.406 7.46 59.318 7.46C60.23 7.46 61.052 7.664 61.784 8.072C62.516 8.48 63.086 9.05 63.494 9.782C63.914 10.514 64.124 11.342 64.124 12.266C64.124 13.19 63.914 14.018 63.494 14.75C63.086 15.482 62.516 16.058 61.784 16.478C61.052 16.886 60.23 17.09 59.318 17.09ZM59.318 15.956C59.99 15.956 60.59 15.806 61.118 15.506C61.658 15.194 62.078 14.756 62.378 14.192C62.678 13.628 62.828 12.986 62.828 12.266C62.828 11.546 62.678 10.904 62.378 10.34C62.078 9.776 61.658 9.344 61.118 9.044C60.59 8.732 59.99 8.576 59.318 8.576C58.646 8.576 58.04 8.732 57.5 9.044C56.972 9.344 56.552 9.776 56.24 10.34C55.94 10.904 55.79 11.546 55.79 12.266C55.79 12.986 55.94 13.628 56.24 14.192C56.552 14.756 56.972 15.194 57.5 15.506C58.04 15.806 58.646 15.956 59.318 15.956ZM71.5572 7.46C72.7452 7.46 73.6872 7.808 74.3832 8.504C75.0912 9.188 75.4452 10.19 75.4452 11.51V17H74.1672V11.636C74.1672 10.652 73.9212 9.902 73.4292 9.386C72.9372 8.87 72.2352 8.612 71.3232 8.612C70.3032 8.612 69.4932 8.918 68.8932 9.53C68.3052 10.13 68.0112 10.964 68.0112 12.032V17H66.7332V7.532H67.9572V9.278C68.3052 8.702 68.7852 8.258 69.3972 7.946C70.0212 7.622 70.7412 7.46 71.5572 7.46Z" fill="#F9F9F9"/>
<path d="M6.876 27.4C7.968 27.4 8.916 27.58 9.72 27.94C10.536 28.3 11.16 28.816 11.592 29.488C12.024 30.16 12.24 30.958 12.24 31.882C12.24 32.794 12.024 33.592 11.592 34.276C11.16 34.948 10.536 35.464 9.72 35.824C8.916 36.184 7.968 36.364 6.876 36.364H4.032V40H1.692V27.4H6.876ZM6.768 34.384C7.788 34.384 8.562 34.168 9.09 33.736C9.618 33.304 9.882 32.686 9.882 31.882C9.882 31.078 9.618 30.46 9.09 30.028C8.562 29.596 7.788 29.38 6.768 29.38H4.032V34.384H6.768ZM14.5365 26.644H16.7865V40H14.5365V26.644ZM23.4117 30.28C24.8277 30.28 25.9077 30.622 26.6517 31.306C27.4077 31.978 27.7857 32.998 27.7857 34.366V40H25.6617V38.83C25.3857 39.25 24.9897 39.574 24.4737 39.802C23.9697 40.018 23.3577 40.126 22.6377 40.126C21.9177 40.126 21.2877 40.006 20.7477 39.766C20.2077 39.514 19.7877 39.172 19.4877 38.74C19.1997 38.296 19.0557 37.798 19.0557 37.246C19.0557 36.382 19.3737 35.692 20.0097 35.176C20.6577 34.648 21.6717 34.384 23.0517 34.384H25.5357V34.24C25.5357 33.568 25.3317 33.052 24.9237 32.692C24.5277 32.332 23.9337 32.152 23.1417 32.152C22.6017 32.152 22.0677 32.236 21.5397 32.404C21.0237 32.572 20.5857 32.806 20.2257 33.106L19.3437 31.468C19.8477 31.084 20.4537 30.79 21.1617 30.586C21.8697 30.382 22.6197 30.28 23.4117 30.28ZM23.1057 38.488C23.6697 38.488 24.1677 38.362 24.5997 38.11C25.0437 37.846 25.3557 37.474 25.5357 36.994V35.878H23.2137C21.9177 35.878 21.2697 36.304 21.2697 37.156C21.2697 37.564 21.4317 37.888 21.7557 38.128C22.0797 38.368 22.5297 38.488 23.1057 38.488ZM39.4975 30.388L34.9975 40.774C34.5775 41.818 34.0675 42.55 33.4675 42.97C32.8675 43.402 32.1415 43.618 31.2895 43.618C30.8095 43.618 30.3355 43.54 29.8675 43.384C29.3995 43.228 29.0155 43.012 28.7155 42.736L29.6155 41.08C29.8315 41.284 30.0835 41.446 30.3715 41.566C30.6715 41.686 30.9715 41.746 31.2715 41.746C31.6675 41.746 31.9915 41.644 32.2435 41.44C32.5075 41.236 32.7475 40.894 32.9635 40.414L33.1255 40.036L28.9315 30.388H31.2715L34.2955 37.498L37.3375 30.388H39.4975ZM50.0003 40.18C49.0283 40.18 48.0863 40.042 47.1743 39.766C46.2743 39.49 45.5603 39.124 45.0323 38.668L45.8423 36.85C46.3583 37.258 46.9883 37.594 47.7323 37.858C48.4883 38.11 49.2443 38.236 50.0003 38.236C50.9363 38.236 51.6323 38.086 52.0883 37.786C52.5563 37.486 52.7903 37.09 52.7903 36.598C52.7903 36.238 52.6583 35.944 52.3943 35.716C52.1423 35.476 51.8183 35.29 51.4223 35.158C51.0263 35.026 50.4863 34.876 49.8023 34.708C48.8423 34.48 48.0623 34.252 47.4623 34.024C46.8743 33.796 46.3643 33.442 45.9323 32.962C45.5123 32.47 45.3023 31.81 45.3023 30.982C45.3023 30.286 45.4883 29.656 45.8603 29.092C46.2443 28.516 46.8143 28.06 47.5703 27.724C48.3383 27.388 49.2743 27.22 50.3783 27.22C51.1463 27.22 51.9023 27.316 52.6463 27.508C53.3903 27.7 54.0323 27.976 54.5723 28.336L53.8343 30.154C53.2823 29.83 52.7063 29.584 52.1063 29.416C51.5063 29.248 50.9243 29.164 50.3603 29.164C49.4363 29.164 48.7463 29.32 48.2903 29.632C47.8463 29.944 47.6243 30.358 47.6243 30.874C47.6243 31.234 47.7503 31.528 48.0023 31.756C48.2663 31.984 48.5963 32.164 48.9923 32.296C49.3883 32.428 49.9283 32.578 50.6123 32.746C51.5483 32.962 52.3163 33.19 52.9163 33.43C53.5163 33.658 54.0263 34.012 54.4463 34.492C54.8783 34.972 55.0943 35.62 55.0943 36.436C55.0943 37.132 54.9023 37.762 54.5183 38.326C54.1463 38.89 53.5763 39.34 52.8083 39.676C52.0403 40.012 51.1043 40.18 50.0003 40.18ZM62.9767 39.478C62.7127 39.694 62.3887 39.856 62.0047 39.964C61.6327 40.072 61.2367 40.126 60.8167 40.126C59.7607 40.126 58.9447 39.85 58.3687 39.298C57.7927 38.746 57.5047 37.942 57.5047 36.886V32.26H55.9207V30.46H57.5047V28.264H59.7547V30.46H62.3287V32.26H59.7547V36.832C59.7547 37.3 59.8687 37.66 60.0967 37.912C60.3247 38.152 60.6547 38.272 61.0867 38.272C61.5907 38.272 62.0107 38.14 62.3467 37.876L62.9767 39.478ZM68.8312 40.126C67.8592 40.126 66.9832 39.916 66.2032 39.496C65.4232 39.076 64.8112 38.494 64.3672 37.75C63.9352 36.994 63.7192 36.142 63.7192 35.194C63.7192 34.246 63.9352 33.4 64.3672 32.656C64.8112 31.912 65.4232 31.33 66.2032 30.91C66.9832 30.49 67.8592 30.28 68.8312 30.28C69.8152 30.28 70.6972 30.49 71.4772 30.91C72.2572 31.33 72.8632 31.912 73.2952 32.656C73.7392 33.4 73.9612 34.246 73.9612 35.194C73.9612 36.142 73.7392 36.994 73.2952 37.75C72.8632 38.494 72.2572 39.076 71.4772 39.496C70.6972 39.916 69.8152 40.126 68.8312 40.126ZM68.8312 38.2C69.6592 38.2 70.3432 37.924 70.8832 37.372C71.4232 36.82 71.6932 36.094 71.6932 35.194C71.6932 34.294 71.4232 33.568 70.8832 33.016C70.3432 32.464 69.6592 32.188 68.8312 32.188C68.0032 32.188 67.3192 32.464 66.7792 33.016C66.2512 33.568 65.9872 34.294 65.9872 35.194C65.9872 36.094 66.2512 36.82 66.7792 37.372C67.3192 37.924 68.0032 38.2 68.8312 38.2ZM78.2547 31.792C78.9027 30.784 80.0427 30.28 81.6747 30.28V32.422C81.4827 32.386 81.3087 32.368 81.1527 32.368C80.2767 32.368 79.5927 32.626 79.1007 33.142C78.6087 33.646 78.3627 34.378 78.3627 35.338V40H76.1127V30.388H78.2547V31.792ZM92.5315 35.248C92.5315 35.404 92.5195 35.626 92.4955 35.914H84.9535C85.0855 36.622 85.4275 37.186 85.9795 37.606C86.5435 38.014 87.2395 38.218 88.0675 38.218C89.1235 38.218 89.9935 37.87 90.6775 37.174L91.8835 38.56C91.4515 39.076 90.9055 39.466 90.2455 39.73C89.5855 39.994 88.8415 40.126 88.0135 40.126C86.9575 40.126 86.0275 39.916 85.2235 39.496C84.4195 39.076 83.7955 38.494 83.3515 37.75C82.9195 36.994 82.7035 36.142 82.7035 35.194C82.7035 34.258 82.9135 33.418 83.3335 32.674C83.7655 31.918 84.3595 31.33 85.1155 30.91C85.8715 30.49 86.7235 30.28 87.6715 30.28C88.6075 30.28 89.4415 30.49 90.1735 30.91C90.9175 31.318 91.4935 31.9 91.9015 32.656C92.3215 33.4 92.5315 34.264 92.5315 35.248ZM87.6715 32.08C86.9515 32.08 86.3395 32.296 85.8355 32.728C85.3435 33.148 85.0435 33.712 84.9355 34.42H90.3895C90.2935 33.724 89.9995 33.16 89.5075 32.728C89.0155 32.296 88.4035 32.08 87.6715 32.08Z" fill="#F9F9F9"/>
</svg>
