<svg width="39" height="36" viewBox="0 0 39 36" fill="none" xmlns="http://www.w3.org/2000/svg">
<ellipse cx="19.4624" cy="17.9317" rx="15.664" ry="12.0492" transform="rotate(-27.5765 19.4624 17.9317)" fill="#2F73DA"/>
<path d="M20.1165 16.9117C21.2152 17.0184 22.0525 17.3597 22.6285 17.9357C23.2045 18.501 23.4925 19.2264 23.4925 20.1117C23.4925 20.7517 23.3325 21.333 23.0125 21.8557C22.6925 22.3677 22.2125 22.7784 21.5725 23.0877C20.9432 23.3864 20.1699 23.5357 19.2525 23.5357C18.4525 23.5357 17.6845 23.4184 16.9485 23.1837C16.2125 22.9384 15.6099 22.6024 15.1405 22.1757L15.8765 20.9117C16.2605 21.2744 16.7512 21.5677 17.3485 21.7917C17.9459 22.005 18.5805 22.1117 19.2525 22.1117C20.0845 22.1117 20.7299 21.9357 21.1885 21.5837C21.6579 21.2317 21.8925 20.7464 21.8925 20.1277C21.8925 19.509 21.6632 19.029 21.2045 18.6877C20.7459 18.3464 20.0525 18.1757 19.1245 18.1757H18.2285V17.0557L21.0445 13.5997H15.6525V12.2077H23.0445V13.2957L20.1165 16.9117Z" fill="#F9F9F9"/>
</svg>
