<svg width="43" height="43" viewBox="0 0 43 43" fill="none" xmlns="http://www.w3.org/2000/svg">
<circle cx="21.5" cy="21.5" r="21.5" fill="#52D858"/>
<path d="M11.1228 23.1989C11.0727 22.7808 11.0469 22.3654 11.0469 22C11.0469 16.546 15.546 12.0469 21 12.0469C23.544 12.0469 25.9258 13.0726 27.6777 14.6722L26.7992 15.5661C26.6012 15.764 26.525 16.0534 26.6012 16.3278C26.6927 16.5866 26.9059 16.7848 27.18 16.8457C27.3334 16.8764 32.3706 18.4997 32.0499 18.4352C32.4579 18.5711 33.0613 18.1359 32.9489 17.5364C32.9179 17.3829 31.8027 11.7872 31.8672 12.1078C31.8063 11.8336 31.6081 11.6051 31.334 11.5289C31.0751 11.4528 30.7855 11.5289 30.5875 11.7269L29.8411 12.4581C27.5407 10.3102 24.3819 9 21 9C13.8551 9 8 14.8551 8 22V22.0303C8 22.4598 8.01964 22.7917 8.04245 23.0456C8.0728 23.382 8.32075 23.6575 8.65202 23.724L10.2169 24.0368C10.7263 24.1388 11.1843 23.7117 11.1228 23.1989Z" fill="#F9F9F9"/>
<path d="M33.3524 20.2748L31.783 19.955C31.273 19.8511 30.8118 20.2786 30.8744 20.7937C30.9288 21.2382 30.953 21.6705 30.953 22C30.953 27.4538 26.4539 31.9531 20.9999 31.9531C18.4559 31.9531 16.0741 30.9274 14.3221 29.3125L15.2007 28.4339C15.3987 28.2359 15.4748 27.9465 15.3987 27.6722C15.3072 27.4131 15.094 27.2152 14.8198 27.1543C14.6665 27.1233 9.62924 25.5003 9.94999 25.5648C9.69093 25.5191 9.43186 25.5953 9.26444 25.778C9.08155 25.9456 9.00538 26.2198 9.051 26.4636C9.08195 26.6169 10.1974 32.1618 10.1329 31.8412C10.1936 32.1156 10.3917 32.3441 10.6659 32.4201C10.9839 32.4998 11.2493 32.4034 11.4123 32.2221L12.1437 31.4909C14.4439 33.639 17.6027 35 20.9999 35C28.1448 35 33.9999 29.1449 33.9999 22V21.9541C33.9999 21.6165 33.9876 21.2851 33.9594 20.9556C33.9304 20.6189 33.6835 20.3424 33.3524 20.2748Z" fill="#F9F9F9"/>
</svg>
