<svg width="43" height="43" viewBox="0 0 43 43" fill="none" xmlns="http://www.w3.org/2000/svg">
<circle cx="21.5" cy="21.5" r="21.5" fill="#52D858"/>
<path d="M22.1333 25.0333V9.43333C22.1333 9.19402 21.9393 9 21.7 9H10.4333C10.194 9 10 9.19402 10 9.43333V25.0333C10 25.2726 10.194 25.4667 10.4333 25.4667H21.7C21.9393 25.4667 22.1333 25.2726 22.1333 25.0333ZM21.2667 24.6H10.8667V22.8667H21.2667V24.6ZM21.2667 18.9667H19.7127L19.1108 18.3648C20.4592 16.678 20.1848 14.2176 18.4981 12.8693C16.8114 11.521 14.3509 11.7953 13.0026 13.482C11.6543 15.1688 11.9286 17.6292 13.6154 18.9775C15.0429 20.1186 17.0705 20.1186 18.4981 18.9775L19.227 19.7064C19.3082 19.7876 19.4184 19.8333 19.5333 19.8333H21.2667V22H10.8667V9.86667H21.2667V18.9667ZM15.7603 16.2397L17.8797 18.36C16.5331 19.3678 14.6245 19.093 13.6167 17.7464C12.6089 16.3998 12.8837 14.4911 14.2303 13.4834C15.5769 12.4756 17.4856 12.7503 18.4933 14.097C19.3029 15.1787 19.3029 16.6646 18.4933 17.7464L16.373 15.627C16.2009 15.4607 15.9265 15.4655 15.7603 15.6376C15.5981 15.8056 15.5981 16.0718 15.7603 16.2397Z" fill="#F9F9F9"/>
<path d="M20.8332 20.7H19.9666V21.5666H20.8332V20.7Z" fill="#F9F9F9"/>
<path d="M12.1667 20.7H11.3V21.5666H12.1667V20.7Z" fill="#F9F9F9"/>
<path d="M12.1667 10.3H11.3V11.1667H12.1667V10.3Z" fill="#F9F9F9"/>
<path d="M20.8332 10.3H19.9666V11.1667H20.8332V10.3Z" fill="#F9F9F9"/>
<path d="M14.3332 23.3H13.4666V24.1667H14.3332V23.3Z" fill="#F9F9F9"/>
<path d="M12.6001 23.3H11.7334V24.1667H12.6001V23.3Z" fill="#F9F9F9"/>
<path d="M16.4999 14.2001C16.4999 13.9607 16.3059 13.7667 16.0666 13.7667C14.8706 13.7681 13.9013 14.7374 13.8999 15.9334C13.8999 16.1727 14.0939 16.3667 14.3332 16.3667C14.5725 16.3667 14.7666 16.1727 14.7666 15.9334C14.7666 15.2154 15.3486 14.6334 16.0666 14.6334C16.3059 14.6334 16.4999 14.4394 16.4999 14.2001Z" fill="#F9F9F9"/>
<path d="M20.4 23.3H15.2V24.1667H20.4V23.3Z" fill="#F9F9F9"/>
<path d="M35.5667 18.5333H24.3C24.0607 18.5333 23.8667 18.7274 23.8667 18.9667V34.5667C23.8667 34.806 24.0607 35 24.3 35H35.5667C35.806 35 36 34.806 36 34.5667V18.9667C36 18.7274 35.806 18.5333 35.5667 18.5333ZM35.1334 34.1333H24.7334V32.4H35.1334V34.1333ZM35.1334 28.5H33.5794L32.9775 27.8981C34.3258 26.2113 34.0515 23.7509 32.3648 22.4026C30.678 21.0543 28.2176 21.3286 26.8693 23.0153C25.521 24.7021 25.7953 27.1625 27.4821 28.5108C28.9096 29.652 30.9372 29.652 32.3648 28.5108L33.0937 29.2397C33.1749 29.3209 33.2851 29.3667 33.4 29.3667H35.1334V31.5333H24.7334V19.4H35.1334V28.5ZM29.627 25.773L31.7464 27.8933C30.3998 28.9011 28.4912 28.6264 27.4834 27.2797C26.4756 25.9331 26.7504 24.0245 28.097 23.0167C29.4436 22.0089 31.3523 22.2837 32.36 23.6303C33.1696 24.7121 33.1696 26.1979 32.36 27.2797L30.2397 25.1603C30.0676 24.994 29.7933 24.9988 29.627 25.1709C29.4648 25.3388 29.4648 25.6051 29.627 25.773Z" fill="#F9F9F9"/>
<path d="M34.6999 30.2333H33.8333V31.0999H34.6999V30.2333Z" fill="#F9F9F9"/>
<path d="M26.0334 30.2333H25.1667V31.0999H26.0334V30.2333Z" fill="#F9F9F9"/>
<path d="M26.0334 19.8334H25.1667V20.7H26.0334V19.8334Z" fill="#F9F9F9"/>
<path d="M34.6999 19.8334H33.8333V20.7H34.6999V19.8334Z" fill="#F9F9F9"/>
<path d="M28.1999 32.8334H27.3333V33.7H28.1999V32.8334Z" fill="#F9F9F9"/>
<path d="M26.4668 32.8334H25.6001V33.7H26.4668V32.8334Z" fill="#F9F9F9"/>
<path d="M30.3666 23.7334C30.3666 23.4941 30.1726 23.3 29.9333 23.3C28.7373 23.3015 27.768 24.2707 27.7666 25.4667C27.7666 25.706 27.9606 25.9 28.1999 25.9C28.4392 25.9 28.6333 25.706 28.6333 25.4667C28.6333 24.7487 29.2153 24.1667 29.9333 24.1667C30.1726 24.1667 30.3666 23.9727 30.3666 23.7334Z" fill="#F9F9F9"/>
<path d="M34.2666 32.8334H29.0667V33.7H34.2666V32.8334Z" fill="#F9F9F9"/>
<path d="M25.5779 13.1318L24.4794 12.0333H28.1999C28.9179 12.0333 29.4999 12.6154 29.4999 13.3333V17.6667H30.3666V13.3333C30.3652 12.1373 29.3959 11.1681 28.1999 11.1667H24.4794L25.5779 10.0682L24.9651 9.45544L22.8206 11.6L24.9651 13.7446L25.5779 13.1318Z" fill="#F9F9F9"/>
<path d="M20.4221 30.8682L21.5206 31.9667H17.8C17.082 31.9667 16.5 31.3847 16.5 30.6667V26.3334H15.6333V30.6667C15.6347 31.8627 16.604 32.832 17.8 32.8334H21.5206L20.4221 33.9319L21.0348 34.5446L23.1794 32.4L21.0348 30.2555L20.4221 30.8682Z" fill="#F9F9F9"/>
</svg>
