<svg width="43" height="43" viewBox="0 0 43 43" fill="none" xmlns="http://www.w3.org/2000/svg">
<circle cx="21.5" cy="21.5" r="21.5" fill="#2F73DA"/>
<path d="M23.4158 14.7177H11.8198V16.5972H23.4158V14.7177Z" fill="#F9F9F9"/>
<path d="M29.0953 28.8497C29.9943 27.2618 29.7336 25.2385 28.4261 23.9324C27.6525 23.1589 26.624 22.7319 25.5264 22.7319C24.4288 22.7319 23.3988 23.1589 22.6253 23.9324C21.8517 24.7059 21.4248 25.7345 21.4248 26.8335C21.4248 27.9283 21.8517 28.9582 22.6253 29.7346C23.3988 30.5053 24.4274 30.9322 25.5235 30.9322C26.2379 30.9322 26.9297 30.7505 27.544 30.4039L32.1401 35L33.6914 33.4473L29.0953 28.8497ZM27.2524 28.5581C26.3337 29.4767 24.7218 29.4767 23.8032 28.5581C22.8521 27.6056 22.8521 26.06 23.8032 25.1075C24.2625 24.6482 24.8768 24.3945 25.5292 24.3945C26.1815 24.3945 26.793 24.6482 27.2538 25.1075C27.7145 25.5668 27.9681 26.1811 27.9681 26.8335C27.9681 27.4858 27.7131 28.0973 27.2524 28.5581Z" fill="#F9F9F9"/>
<path d="M26.7846 31.9665H10.6165C10.3601 31.9665 10.153 31.7579 10.153 31.5043V11.3079C10.153 11.0515 10.3601 10.8444 10.6165 10.8444H26.7846C27.041 10.8444 27.2468 11.0515 27.2468 11.3079V21.6104C27.916 21.757 28.5402 22.043 29.0925 22.4516V11.3079C29.0925 10.0356 28.0583 9 26.7846 9H10.6165C9.3442 9 8.30859 10.0356 8.30859 11.3079V31.5043C8.30859 32.7752 9.3442 33.8108 10.6165 33.8108H26.7846C27.7498 33.8108 28.2063 33.5826 28.5501 32.74L27.7131 31.9031C27.4046 32.0327 26.9171 31.9665 26.7846 31.9665Z" fill="#F9F9F9"/>
<path d="M23.4158 20.0154H11.8198V21.895H23.4158V20.0154Z" fill="#F9F9F9"/>
</svg>
