<svg width="86" height="85" viewBox="0 0 86 85" fill="none" xmlns="http://www.w3.org/2000/svg">
<circle cx="43.498" cy="42.5" r="41.5" fill="white" stroke="#165ECC" stroke-width="2"/>
<g clip-path="url(#clip0)">
<path d="M66.2309 70.8703V76.7931C66.2309 77.4599 65.6909 78 65.0241 78H20.9723C20.3055 78 19.7654 77.4599 19.7654 76.7931V70.8703C19.7654 66.3157 22.4734 62.3918 26.3672 60.6222C24.7784 59.3581 22.3569 57.6591 20.5952 54.0039C18.1414 48.9201 18.5614 42.9228 21.6874 38.2282C23.3861 35.6787 24.2913 32.6856 24.2913 29.6231V23.0862C24.2913 14.7541 31.0454 8 39.3775 8H46.6189C54.951 8 61.7051 14.7541 61.7051 23.0862C61.7051 30.0088 61.536 31.3645 62.3704 34.1172C63.5479 38.0096 65.1031 38.4912 66.3019 42.4524C68.1863 48.6791 66.1018 55.4698 60.9659 59.5586L59.6292 60.6222C63.523 62.3918 66.2309 66.3157 66.2309 70.8703Z" fill="#FFDFBA"/>
<path d="M66.2309 70.8703V76.7931C66.2309 77.4596 65.6905 78 65.024 78H20.9723C20.3058 78 19.7654 77.4596 19.7654 76.7931V70.8703C19.7654 64.6605 24.7995 59.6205 31.0152 59.6205C31.9399 59.6205 32.818 59.4198 33.607 59.0608L33.6447 59.1423L42.2594 65.8116C42.6943 66.1483 43.302 66.1483 43.7371 65.8116L52.3516 59.1423L52.3893 59.0608C53.1783 59.4198 54.0563 59.6205 54.9811 59.6205C61.1726 59.6205 66.2309 64.6365 66.2309 70.8703Z" fill="#165ECC"/>
<path d="M56.7911 30.0647C57.4318 30.1012 57.9334 30.6277 57.9334 31.2695V38.4937C57.9334 44.7198 54.1242 50.0558 48.7082 52.2976C38.9147 56.3629 28.0627 49.1409 28.0627 38.4937V31.3745C28.0627 30.6671 28.6686 30.1082 29.3731 30.172C36.6125 30.8284 43.7415 29.0002 49.7279 24.9674C50.4087 24.5088 51.3462 24.8485 51.5612 25.6409C52.3058 28.3856 54.3369 29.9249 56.7911 30.0647Z" fill="#FFEBD2"/>
<path d="M60.9658 59.5586L59.6292 60.6222C58.2126 59.9795 56.6391 59.6205 54.9811 59.6205C51.5371 59.6205 48.7309 56.8393 48.7309 53.3838V52.3534L48.7083 52.2976C54.1242 50.0558 57.9335 44.7198 57.9335 38.4937V31.2696C57.9335 30.6278 57.4319 30.1013 56.7911 30.0648C54.352 29.9258 52.3107 28.4033 51.5612 25.6411C51.3462 24.8487 50.4088 24.509 49.7279 24.9676C43.7455 28.9977 36.617 30.8289 29.3732 30.1722C28.6686 30.1084 28.0628 30.6673 28.0628 31.3747V38.4939C28.0628 44.72 31.8721 50.056 37.288 52.2978L37.2654 52.3536V53.384C37.2654 56.8389 34.4599 59.6206 31.0152 59.6206C29.3572 59.6206 27.7837 59.9797 26.3671 60.6223L25.0305 59.5588C18.5417 54.3884 17.0969 45.122 21.6874 38.2284C23.3861 35.6788 24.2912 32.6857 24.2912 29.6232V23.0862C24.2912 14.7544 31.0456 8 39.3774 8H46.6188C54.9506 8 61.705 14.7544 61.705 23.0862V29.6231C61.705 32.6819 62.6102 35.6787 64.3089 38.2282C68.9161 45.1471 67.4299 54.4124 60.9658 59.5586Z" fill="#42434D"/>
<path d="M48.9014 54.8306C45.1846 56.3864 41.1001 56.5071 37.095 54.8306C37.2995 53.9818 37.2654 53.4321 37.2654 52.3534L37.2881 52.2976C40.9211 53.8056 45.0682 53.8086 48.7083 52.2976L48.731 52.3534C48.731 53.4325 48.6969 53.9821 48.9014 54.8306Z" fill="#FFD6A6"/>
<path d="M53.4341 9.62358C54.9747 10.405 54.3052 12.7565 52.5853 12.5938C52.1112 12.5488 51.6305 12.5259 51.1446 12.5259H43.9032C35.5714 12.5259 28.817 19.2803 28.817 27.6121V29.4478C28.817 30.5316 28.0627 30.4966 28.0627 31.3746C28.0627 39.3434 28.095 38.8389 27.9781 39.1827C26.7946 42.6643 25.3733 43.1682 24.2203 46.9782C23.5922 49.0535 23.4067 51.1906 23.6242 53.2645C23.8018 54.9572 21.4448 55.7669 20.595 54.0039C18.1588 48.9565 18.5403 42.9543 21.6873 38.2282C23.386 35.6787 24.2912 32.6856 24.2912 29.6231V23.0862C24.2912 14.7544 31.0456 8 39.3774 8H46.6187C49.0713 8 51.387 8.58519 53.4341 9.62358Z" fill="#4D4E59"/>
<path d="M40.1349 48.4987C42.3886 50.0074 40.6709 53.4968 38.1118 52.5987C32.4868 50.6248 28.0627 45.375 28.0627 38.4936V31.3744C28.0627 30.6669 28.6692 30.1087 29.3737 30.172C29.9518 30.2245 30.5867 30.2659 31.2717 30.2868C32.5117 30.3245 33.4938 31.3484 33.4938 32.589V36.0799C33.4938 41.3339 36.1725 45.8464 40.1349 48.4987Z" fill="#FFF3E4"/>
<path d="M36.1329 61.0686C36.8489 61.6229 36.4705 62.7851 35.565 62.7886C29.1786 62.8124 24.2912 67.9404 24.2912 74.0384V78H20.9723C20.3058 78 19.7654 77.4596 19.7654 76.7931V70.8703C19.7654 64.6603 24.7996 59.6205 31.0152 59.6205C31.94 59.6205 32.818 59.4198 33.607 59.0608L33.6447 59.1423L36.1329 61.0686Z" fill="#165ECC"/>
<path d="M49.8633 61.0686C49.1473 61.6229 49.5256 62.7851 50.4311 62.7886C56.8176 62.8124 61.7049 67.9404 61.7049 74.0384V78H65.0239C65.6904 78 66.2308 77.4596 66.2308 76.7931V70.8703C66.2308 64.6603 61.1965 59.6205 54.981 59.6205C54.0562 59.6205 53.1782 59.4198 52.3892 59.0608L52.3514 59.1423L49.8633 61.0686Z" fill="#165ECC"/>
</g>
<defs>
<clipPath id="clip0">
<rect width="70" height="70" fill="white" transform="translate(7.99805 8)"/>
</clipPath>
</defs>
</svg>
