<svg width="50" height="50" viewBox="0 0 50 50" fill="none" xmlns="http://www.w3.org/2000/svg">
<path d="M16.0024 23.0452C14.7709 22.6907 13.5394 22.5108 12.3415 22.5108C10.4916 22.5108 8.94809 22.9335 7.75122 23.4512C8.90508 19.227 11.677 11.9382 17.1987 11.1174C17.7101 11.0414 18.1292 10.6716 18.2687 10.1739L19.4755 5.85738C19.5773 5.49234 19.5169 5.1016 19.3087 4.78481C19.1005 4.46802 18.7659 4.25665 18.3909 4.20526C17.9834 4.14966 17.568 4.12134 17.1562 4.12134C10.5284 4.12134 3.96445 11.0393 1.19466 20.9446C-0.431236 26.7559 -0.907991 35.4928 3.09696 40.992C5.33807 44.0691 8.6077 45.7123 12.8151 45.8765C12.8324 45.877 12.8492 45.8775 12.8665 45.8775C18.0578 45.8775 22.6612 42.3813 24.0616 37.3762C24.8981 34.384 24.52 31.246 22.9958 28.5381C21.4879 25.8606 19.0045 23.909 16.0024 23.0452Z" fill="#F9F9F9"/>
<path d="M48.4988 28.5386C46.9909 25.8606 44.5075 23.909 41.5053 23.0452C40.2738 22.6907 39.0424 22.5108 37.845 22.5108C35.9951 22.5108 34.451 22.9335 33.2542 23.4512C34.408 19.227 37.1799 11.9382 42.7022 11.1174C43.2136 11.0414 43.6321 10.6716 43.7721 10.1739L44.979 5.85738C45.0807 5.49234 45.0204 5.1016 44.8122 4.78481C44.6045 4.46802 44.2699 4.25665 43.8943 4.20526C43.4873 4.14966 43.072 4.12134 42.6597 4.12134C36.0318 4.12134 29.4679 11.0393 26.6976 20.9446C25.0722 26.7559 24.5955 35.4928 28.601 40.993C30.8415 44.0696 34.1117 45.7134 38.3186 45.877C38.3359 45.8775 38.3527 45.878 38.3705 45.878C43.5613 45.878 48.1652 42.3818 49.5656 37.3767C50.4011 34.3845 50.0224 31.246 48.4988 28.5386Z" fill="#F9F9F9"/>
</svg>
