<svg width="51" height="50" viewBox="0 0 51 50" fill="none" xmlns="http://www.w3.org/2000/svg">
<g clip-path="url(#clip0)">
<path d="M34.9932 26.9548C36.2247 27.3093 37.4562 27.4892 38.6541 27.4892C40.504 27.4892 42.0475 27.0665 43.2444 26.5488C42.0905 30.773 39.3186 38.0618 33.7969 38.8826C33.2855 38.9586 32.8664 39.3284 32.7269 39.8261L31.5201 44.1426C31.4183 44.5077 31.4787 44.8984 31.6869 45.2152C31.8951 45.532 32.2297 45.7433 32.6047 45.7947C33.0122 45.8503 33.4276 45.8787 33.8394 45.8787C40.4672 45.8787 47.0312 38.9607 49.8009 29.0554C51.4268 23.2441 51.9036 14.5072 47.8986 9.00804C45.6575 5.9309 42.3879 4.28769 38.1805 4.12353C38.1632 4.123 38.1464 4.12248 38.1291 4.12248C32.9378 4.12248 28.3344 7.61868 26.934 12.6238C26.0975 15.616 26.4756 18.754 27.9998 21.4619C29.5077 24.1394 31.9911 26.091 34.9932 26.9548Z" fill="#F9F9F9"/>
<path d="M2.49683 21.4614C4.00471 24.1394 6.48814 26.091 9.49028 26.9548C10.7218 27.3093 11.9533 27.4892 13.1506 27.4892C15.0005 27.4892 16.5446 27.0665 17.7414 26.5488C16.5876 30.773 13.8157 38.0618 8.29341 38.8826C7.78204 38.9586 7.3635 39.3284 7.22347 39.8261L6.01663 44.1426C5.91488 44.5077 5.9752 44.8984 6.18341 45.2152C6.39111 45.532 6.72573 45.7433 7.10126 45.7947C7.50826 45.8503 7.92365 45.8787 8.33589 45.8787C14.9638 45.8787 21.5277 38.9607 24.298 29.0554C25.9234 23.2441 26.4001 14.5073 22.3947 9.007C20.1541 5.93039 16.8839 4.28666 12.677 4.12302C12.6597 4.12249 12.6429 4.12197 12.6251 4.12197C7.43431 4.12197 2.8304 7.61817 1.43003 12.6233C0.594531 15.6155 0.973206 18.754 2.49683 21.4614Z" fill="#F9F9F9"/>
</g>
<defs>
<clipPath id="clip0">
<rect width="50.0005" height="50" fill="white" transform="translate(50.9961 50) rotate(-180)"/>
</clipPath>
</defs>
</svg>
