<svg width="109" height="109" viewBox="0 0 109 109" fill="none" xmlns="http://www.w3.org/2000/svg">
<g clip-path="url(#clip0)">
<path d="M2.27063 11.3375C3.52475 11.3375 4.5415 12.3543 4.5415 13.6084C4.57407 42.4397 27.9385 65.8041 56.7698 65.8367H101.246L77.8701 42.4657C76.999 41.5637 77.0239 40.1261 77.9259 39.2547C78.806 38.4049 80.201 38.4049 81.0809 39.2547L108.33 66.5043C109.218 67.3899 109.22 68.8277 108.334 69.7157C108.333 69.717 108.332 69.7185 108.33 69.7197L81.0809 96.9693C80.2095 97.8713 78.7721 97.8962 77.8699 97.0251C76.9679 96.1537 76.943 94.7163 77.8141 93.8141C77.8324 93.7952 77.8509 93.7766 77.8699 93.7583L101.246 70.3782H56.77C25.4313 70.3431 0.0351028 44.9469 -2.28882e-05 13.6082C-2.28882e-05 12.3543 1.01651 11.3375 2.27063 11.3375Z" fill="#D4E2F7"/>
<path d="M79.4779 97.6278C80.0805 97.6289 80.659 97.3905 81.0856 96.9647L108.335 69.7151C109.222 68.8284 109.222 67.391 108.335 66.5041L81.0856 39.2546C80.1836 38.3834 78.7459 38.4083 77.8746 39.3103C77.0248 40.1904 77.0248 41.5855 77.8746 42.4653L103.516 68.1076L77.8746 93.7495C76.9866 94.6351 76.9849 96.0729 77.8706 96.9609C78.2965 97.3877 78.8747 97.6278 79.4779 97.6278Z" fill="#D4E2F7"/>
<path d="M56.7698 70.3782H106.727C107.982 70.3782 108.998 69.3614 108.998 68.1073C108.998 66.8532 107.982 65.8364 106.727 65.8364H56.7698C27.9383 65.8039 4.57387 42.4395 4.54151 13.6081C4.54151 12.354 3.52476 11.3373 2.27064 11.3373C1.01652 11.3373 -0.000221252 12.354 -0.000221252 13.6081C0.0349045 44.9469 25.4313 70.3432 56.7698 70.3782Z" fill="#D4E2F7"/>
</g>
<defs>
<clipPath id="clip0">
<rect width="109" height="109" fill="white" transform="matrix(-1 0 0 1 109 0)"/>
</clipPath>
</defs>
</svg>
