<svg width="109" height="109" viewBox="0 0 109 109" fill="none" xmlns="http://www.w3.org/2000/svg">
<g clip-path="url(#clip0)">
<path d="M106.729 11.3375C105.475 11.3375 104.458 12.3543 104.458 13.6084C104.426 42.4397 81.0615 65.8041 52.2302 65.8367H7.75423L31.1299 42.4657C32.001 41.5637 31.9761 40.1261 31.0741 39.2547C30.194 38.4049 28.799 38.4049 27.9191 39.2547L0.669552 66.5043C-0.218401 67.3899 -0.220104 68.8277 0.665507 69.7157C0.666785 69.717 0.668275 69.7185 0.669552 69.7197L27.9191 96.9693C28.7905 97.8713 30.2279 97.8962 31.1301 97.0251C32.0321 96.1537 32.057 94.7163 31.1859 93.8141C31.1676 93.7952 31.1491 93.7766 31.1301 93.7583L7.75423 70.3782H52.23C83.5687 70.3431 108.965 44.9469 109 13.6082C109 12.3543 107.983 11.3375 106.729 11.3375Z" fill="#D4E2F7"/>
<path d="M29.5221 97.6278C28.9195 97.6289 28.341 97.3905 27.9144 96.9647L0.664847 69.7151C-0.221616 68.8284 -0.221616 67.391 0.664847 66.5041L27.9144 39.2546C28.8164 38.3834 30.2541 38.4083 31.1254 39.3103C31.9752 40.1904 31.9752 41.5855 31.1254 42.4653L5.48355 68.1076L31.1254 93.7495C32.0134 94.6351 32.0151 96.0729 31.1294 96.9609C30.7035 97.3877 30.1253 97.6278 29.5221 97.6278Z" fill="#D4E2F7"/>
<path d="M52.2302 70.3782H2.27258C1.01846 70.3782 0.00170898 69.3614 0.00170898 68.1073C0.00170898 66.8532 1.01846 65.8364 2.27258 65.8364H52.2302C81.0617 65.8039 104.426 42.4395 104.458 13.6081C104.458 12.354 105.475 11.3373 106.729 11.3373C107.983 11.3373 109 12.354 109 13.6081C108.965 44.9469 83.5687 70.3432 52.2302 70.3782Z" fill="#D4E2F7"/>
</g>
<defs>
<clipPath id="clip0">
<rect width="109" height="109" fill="white"/>
</clipPath>
</defs>
</svg>
