<svg width="28" height="28" viewBox="0 0 28 28" fill="none" xmlns="http://www.w3.org/2000/svg">
<g clip-path="url(#clip0)">
<path d="M20.911 9.60441C17.6583 7.78512 12.4376 4.86376 4.33986 0.329669C3.79391 -0.0308866 3.16577 -0.0781366 2.62305 0.105559L16.5164 13.9989L20.911 9.60441Z" fill="#32BBFF"/>
<path d="M2.62293 0.10556C2.52121 0.140013 2.42223 0.181576 2.32756 0.231779C1.72824 0.555967 1.28784 1.17979 1.28784 1.96877V26.0291C1.28784 26.8181 1.72819 27.4419 2.32756 27.7661C2.42206 27.8162 2.52099 27.8579 2.6226 27.8926L16.5163 13.9989L2.62293 0.10556Z" fill="#32BBFF"/>
<path d="M16.5163 13.999L2.62256 27.8926C3.16544 28.0777 3.79358 28.034 4.33969 27.6682C12.1927 23.2708 17.3546 20.3841 20.6449 18.5493C20.7365 18.4978 20.8263 18.4475 20.915 18.3977L16.5163 13.999Z" fill="#32BBFF"/>
<path d="M1.28784 13.999V26.0292C1.28784 26.8181 1.72819 27.442 2.32756 27.7661C2.42206 27.8162 2.52099 27.858 2.6226 27.8926L16.5163 13.999H1.28784Z" fill="#2C9FD9"/>
<path d="M4.33981 0.329652C3.69149 -0.0984427 2.92696 -0.0862473 2.32764 0.231816L16.3055 14.2097L20.9109 9.6044C17.6582 7.7851 12.4375 4.86375 4.33981 0.329652Z" fill="#29CC5E"/>
<path d="M16.3056 13.7882L2.32764 27.7661C2.92701 28.0841 3.69149 28.1025 4.33981 27.6683C12.1928 23.2708 17.3547 20.3841 20.645 18.5493C20.7366 18.4979 20.8264 18.4475 20.9151 18.3977L16.3056 13.7882Z" fill="#D93F21"/>
<path d="M26.7122 13.9989C26.7122 13.3323 26.3758 12.6595 25.7091 12.2864C25.7091 12.2864 24.4623 11.5908 20.6405 9.45312L16.0947 13.9989L20.645 18.5492C24.4247 16.4269 25.709 15.7114 25.709 15.7114C26.3758 15.3383 26.7122 14.6656 26.7122 13.9989Z" fill="#FFD500"/>
<path d="M25.7091 15.7115C26.3758 15.3384 26.7122 14.6656 26.7122 13.999H16.0947L20.645 18.5493C24.4248 16.427 25.7091 15.7115 25.7091 15.7115Z" fill="#FFAA00"/>
</g>
<defs>
<clipPath id="clip0">
<rect width="28" height="28" fill="white"/>
</clipPath>
</defs>
</svg>
