<svg width="500" height="500" viewBox="0 0 500 500" fill="none" xmlns="http://www.w3.org/2000/svg">
<path d="M326.56 41.6801L297.16 41.5401C296.2 41.5596 295.253 41.768 294.374 42.1535C293.494 42.539 292.699 43.094 292.034 43.7867C291.37 44.4795 290.848 45.2965 290.499 46.191C290.149 47.0855 289.98 48.04 290 49.0001V54.3301C290.017 55.2887 289.845 56.2414 289.494 57.1337C289.143 58.026 288.62 58.8404 287.954 59.5303C287.288 60.2203 286.493 60.7724 285.614 61.1549C284.735 61.5375 283.789 61.7431 282.83 61.7601L225.52 61.5001C223.583 61.4477 221.746 60.6283 220.412 59.2219C219.079 57.8155 218.359 55.9373 218.41 54.0001V48.6701C218.461 46.7328 217.741 44.8546 216.407 43.4482C215.074 42.0418 213.237 41.2224 211.3 41.1701H200.96L175.22 41.0001C169.092 40.9761 163.206 43.3846 158.852 47.6968C154.499 52.009 152.034 57.8725 152 64.0001L150.43 435.08C150.403 441.21 152.81 447.101 157.123 451.458C161.435 455.815 167.3 458.283 173.43 458.32L324.77 459.01C330.901 459.037 336.792 456.628 341.148 452.313C345.504 447.999 347.968 442.131 348 436L349.57 64.9201C349.586 61.883 349.003 58.8727 347.855 56.0609C346.707 53.2492 345.016 50.6912 342.88 48.533C340.743 46.3748 338.202 44.6588 335.402 43.4829C332.601 42.3071 329.597 41.6945 326.56 41.6801Z" fill="white"/>
<path d="M326.56 41.68C326.56 41.68 326.83 41.68 327.35 41.68C328.137 41.6874 328.922 41.7509 329.7 41.87C332.767 42.2421 335.72 43.2649 338.36 44.87C340.32 46.0217 342.091 47.4687 343.61 49.16C345.481 51.2114 346.968 53.5824 348 56.16C349.184 59.1458 349.759 62.3386 349.69 65.55C349.69 68.96 349.69 72.55 349.69 76.45C349.58 107.28 349.42 151.88 349.22 206.98C349.02 262.08 348.75 327.71 348.46 400.58C348.42 409.693 348.383 418.91 348.35 428.23C348.35 430.57 348.35 432.9 348.35 435.23C348.378 437.595 348.072 439.951 347.44 442.23C346.778 444.534 345.766 446.723 344.44 448.72C343.096 450.712 341.473 452.5 339.62 454.03C335.815 457.09 331.146 458.881 326.27 459.15C325.05 459.23 323.85 459.21 322.64 459.2H319H311.72L282.26 459.06L221.79 458.79L190.86 458.65L175.24 458.57C169.914 458.85 164.643 457.371 160.24 454.36C155.863 451.292 152.658 446.828 151.15 441.7C150.429 439.159 150.115 436.519 150.22 433.88V426.08C150.26 415.7 150.303 405.39 150.35 395.15C150.437 374.67 150.523 354.507 150.61 334.66C150.78 295.01 150.95 256.76 151.11 220.32C151.27 183.88 151.43 149.26 151.57 116.86C151.643 100.66 151.713 85.03 151.78 69.97C151.78 68.09 151.78 66.22 151.78 64.36C151.78 63.43 151.87 62.49 151.92 61.56C151.97 60.63 152.16 59.7 152.4 58.81C153.228 55.2552 154.881 51.9449 157.224 49.1465C159.567 46.348 162.536 44.1398 165.89 42.7C169.132 41.3205 172.639 40.6718 176.16 40.8L196.33 40.9L206 41H210.75C212.361 40.9222 213.952 41.3754 215.28 42.29C216.576 43.2018 217.555 44.4953 218.08 45.99C218.508 47.4697 218.657 49.0159 218.52 50.55C218.52 51.3 218.52 52.05 218.52 52.8C218.493 53.5374 218.516 54.2758 218.59 55.01C218.766 56.4512 219.365 57.8081 220.31 58.91C221.229 60.006 222.472 60.7831 223.86 61.13C224.543 61.299 225.247 61.3731 225.95 61.35H228.08H236.43L266.94 61.52L280.39 61.59C281.45 61.59 282.53 61.65 283.54 61.59C284.553 61.4749 285.527 61.1331 286.39 60.59C287.218 60.0702 287.934 59.3902 288.495 58.59C289.057 57.7897 289.453 56.8854 289.66 55.93C289.828 55 289.892 54.0542 289.85 53.11C289.85 52.18 289.85 51.25 289.85 50.35C289.813 49.4479 289.856 48.5444 289.98 47.65C290.132 46.7831 290.43 45.948 290.86 45.18C291.682 43.7084 292.984 42.5643 294.55 41.94C296.07 41.29 297.68 41.5 299.14 41.47L314.14 41.57L323.37 41.63C325.45 41.63 326.51 41.63 326.51 41.63H323.37H314.14H299.14C297.617 41.4784 296.079 41.6383 294.62 42.1C293.087 42.7042 291.813 43.8256 291.02 45.27C290.598 46.0186 290.307 46.8336 290.16 47.68C290.044 48.565 290.004 49.4582 290.04 50.35C290.04 51.26 290.04 52.18 290.04 53.11C290.08 54.0674 290.017 55.0264 289.85 55.97C289.638 56.9536 289.232 57.885 288.655 58.7093C288.078 59.5336 287.342 60.2342 286.49 60.77C285.6 61.3179 284.599 61.6596 283.56 61.77C282.49 61.86 281.45 61.77 280.38 61.77L267 61.78L236.49 61.66H228.14H226C225.27 61.6861 224.54 61.6121 223.83 61.44C222.382 61.0767 221.085 60.2689 220.12 59.13C219.134 57.9791 218.508 56.5638 218.32 55.06C218.252 54.3121 218.229 53.5608 218.25 52.81C218.25 52.06 218.25 51.31 218.25 50.56C218.385 49.0629 218.239 47.5536 217.82 46.11C217.313 44.682 216.377 43.4455 215.14 42.57C213.867 41.6959 212.342 41.267 210.8 41.35H206.05H196.34L176.18 41.26C172.668 41.1127 169.169 41.7705 165.951 43.1831C162.732 44.5956 159.879 46.7256 157.61 49.41C155.28 52.1935 153.636 55.4852 152.81 59.02C152.57 59.9 152.5 60.82 152.33 61.72C152.16 62.62 152.21 63.55 152.2 64.48C152.2 66.34 152.2 68.21 152.2 70.09C152.147 85.13 152.087 100.76 152.02 116.98C151.89 149.38 151.75 183.98 151.61 220.45C151.47 256.92 151.3 295.13 151.14 334.79C151.06 354.61 150.977 374.77 150.89 395.27C150.85 405.51 150.807 415.823 150.76 426.21C150.76 428.797 150.76 431.397 150.76 434.01C150.661 436.595 150.968 439.18 151.67 441.67C153.139 446.652 156.243 450.995 160.48 454C164.803 456.947 169.975 458.391 175.2 458.11L190.82 458.19L221.74 458.33L282.21 458.61L311.68 458.75H318.96H322.58C323.79 458.75 325 458.75 326.18 458.7C330.949 458.442 335.518 456.693 339.24 453.7C341.06 452.205 342.653 450.453 343.97 448.5C345.262 446.546 346.243 444.404 346.88 442.15C347.509 439.905 347.812 437.581 347.78 435.25V428.25C347.82 418.917 347.86 409.7 347.9 400.6C348.23 327.73 348.53 262.11 348.77 207C349.01 151.89 349.26 107.3 349.41 76.47C349.41 72.62 349.41 68.98 349.47 65.57C349.548 62.3769 348.983 59.2007 347.81 56.23C346.787 53.697 345.324 51.3646 343.49 49.34C339.877 45.3714 335 42.7776 329.69 42C328.915 41.8794 328.134 41.8059 327.35 41.78L326.56 41.68Z" fill="#6A7381"/>
<path d="M299.39 158.51L297.12 155.82L303.88 152.19L272.47 141.56L283.1 172L286.97 166.93C286.97 166.93 307.29 202.69 286.97 224.43C266.79 246.02 242.97 241.34 242.97 241.34L247.56 256.34C247.56 256.34 285 259 305.09 225.16C325.18 191.32 299.39 158.51 299.39 158.51Z" fill="#2F73DA"/>
<path d="M205.21 233.55L207.48 236.24L200.71 239.87L232.12 250.5L221.49 220.06L217.63 225.13C217.63 225.13 197.3 189.37 217.63 167.63C237.81 146.04 261.63 150.72 261.63 150.72L257.04 135.72C257.04 135.72 219.59 133.06 199.54 166.88C179.49 200.7 205.21 233.55 205.21 233.55Z" fill="#2F73DA"/>
<path d="M299.39 158.51L297.12 155.82L303.88 152.19L272.47 141.56L283.1 172L286.97 166.93C286.97 166.93 307.29 202.69 286.97 224.43C266.79 246.02 242.97 241.34 242.97 241.34L247.56 256.34C247.56 256.34 285 259 305.09 225.16C325.18 191.32 299.39 158.51 299.39 158.51Z" fill="#2F73DA"/>
<path d="M205.21 233.55L207.48 236.24L200.71 239.87L232.12 250.5L221.49 220.06L217.63 225.13C217.63 225.13 197.3 189.37 217.63 167.63C237.81 146.04 261.63 150.72 261.63 150.72L257.04 135.72C257.04 135.72 219.59 133.06 199.54 166.88C179.49 200.7 205.21 233.55 205.21 233.55Z" fill="#2F73DA"/>
<g opacity="0.8">
<path opacity="0.8" d="M299.39 158.51L297.12 155.82L303.88 152.19L272.47 141.56L283.1 172L286.97 166.93C286.97 166.93 307.29 202.69 286.97 224.43C266.79 246.02 242.97 241.34 242.97 241.34L247.56 256.34C247.56 256.34 285 259 305.09 225.16C325.18 191.32 299.39 158.51 299.39 158.51Z" fill="white"/>
</g>
<g opacity="0.8">
<path opacity="0.8" d="M205.21 233.55L207.48 236.24L200.71 239.87L232.12 250.5L221.49 220.06L217.63 225.13C217.63 225.13 197.3 189.37 217.63 167.63C237.81 146.04 261.63 150.72 261.63 150.72L257.04 135.72C257.04 135.72 219.59 133.06 199.54 166.88C179.49 200.7 205.21 233.55 205.21 233.55Z" fill="white"/>
</g>
<path fill-rule="evenodd" clip-rule="evenodd" d="M270.21 178.27C271.698 179.864 272.966 181.65 273.98 183.58H279.98L282.22 193.31L276.79 195.94C276.717 198.118 276.354 200.278 275.71 202.36L280 206.61L274.7 215.07L269 213.07C267.413 214.564 265.63 215.836 263.7 216.85V222.85L254 225.11L251.38 219.67C249.215 219.597 247.07 219.237 245 218.6L240.75 222.88L232.28 217.59L234.28 211.89C232.791 210.3 231.523 208.518 230.51 206.59H224.51L222.27 196.86L227.7 194.24C227.772 192.061 228.136 189.902 228.78 187.82L224.5 183.57L229.79 175.1L235.49 177.1C237.08 175.609 238.862 174.338 240.79 173.32V167.32L250.52 165.07L253.14 170.51C255.319 170.578 257.479 170.942 259.56 171.59L263.81 167.3L272.28 172.6L270.28 178.29L270.21 178.27ZM258.3 186.27C256.504 185.143 254.415 184.574 252.296 184.636C250.176 184.698 248.123 185.387 246.396 186.616C244.669 187.845 243.346 189.56 242.594 191.542C241.841 193.524 241.694 195.685 242.171 197.75C242.648 199.816 243.727 201.694 245.272 203.146C246.817 204.597 248.758 205.558 250.849 205.906C252.94 206.254 255.087 205.974 257.019 205.1C258.951 204.227 260.58 202.8 261.7 201C262.446 199.808 262.95 198.48 263.183 197.093C263.415 195.706 263.373 194.286 263.057 192.916C262.741 191.545 262.159 190.25 261.342 189.105C260.526 187.959 259.492 186.986 258.3 186.24V186.27Z" fill="#52D858"/>
<g opacity="0.6">
<path opacity="0.6" fill-rule="evenodd" clip-rule="evenodd" d="M258.3 186.24C256.504 185.117 254.416 184.551 252.298 184.615C250.181 184.679 248.13 185.369 246.405 186.598C244.68 187.827 243.358 189.54 242.607 191.521C241.856 193.501 241.708 195.66 242.184 197.724C242.659 199.788 243.736 201.665 245.278 203.117C246.82 204.569 248.758 205.532 250.847 205.882C252.936 206.233 255.083 205.956 257.014 205.087C258.946 204.218 260.577 202.796 261.7 201C262.446 199.808 262.95 198.48 263.183 197.093C263.415 195.706 263.373 194.286 263.057 192.916C262.741 191.545 262.159 190.25 261.343 189.105C260.526 187.959 259.493 186.986 258.3 186.24Z" fill="white"/>
</g>
<path d="M219.69 294.79V288.38H220.87V294.74C220.87 297.4 222.12 298.61 224.29 298.61C226.46 298.61 227.73 297.4 227.73 294.74V288.38H228.88V294.79C228.88 298.01 227.16 299.67 224.29 299.67C221.42 299.67 219.69 298 219.69 294.79Z" fill="#6A7381"/>
<path d="M241.2 292.22C241.2 294.6 239.48 296.04 236.63 296.04H233.63V299.57H232.44V288.38H236.63C239.48 288.38 241.2 289.82 241.2 292.22ZM240.02 292.22C240.02 290.43 238.84 289.4 236.6 289.4H233.6V295H236.6C238.84 295 240 294 240 292.22H240.02Z" fill="#6A7381"/>
<path d="M243.76 288.38H248.31C251.89 288.38 254.31 290.68 254.31 293.98C254.31 297.28 251.89 299.57 248.31 299.57H243.76V288.38ZM248.25 298.55C251.25 298.55 253.14 296.66 253.14 293.98C253.14 291.3 251.22 289.4 248.25 289.4H244.94V298.55H248.25Z" fill="#6A7381"/>
<path d="M263.81 296.58H257.58L256.23 299.58H255L260.12 288.39H261.29L266.4 299.58H265.16L263.81 296.58ZM263.38 295.58L260.7 289.58L258.01 295.58H263.38Z" fill="#6A7381"/>
<path d="M269.87 289.4H265.93V288.4H275V289.4H271.07V299.57H269.89L269.87 289.4Z" fill="#6A7381"/>
<path d="M284.78 298.55V299.55H276.87V288.38H284.54V289.38H278.05V293.38H283.84V294.38H278.05V298.54L284.78 298.55Z" fill="#6A7381"/>
<path d="M335.33 77.68C335.33 77.78 331.28 77.9 326.28 77.94C321.28 77.98 317.28 77.94 317.28 77.83C317.28 77.72 321.28 77.6 326.28 77.56C331.28 77.52 335.33 77.57 335.33 77.68Z" fill="#6A7381"/>
<path d="M335.37 82.31C335.37 82.42 331.32 82.54 326.32 82.58C321.32 82.62 317.27 82.58 317.27 82.46C317.27 82.34 321.32 82.24 326.32 82.2C331.32 82.16 335.37 82.21 335.37 82.31Z" fill="#6A7381"/>
<path d="M335.41 86.94C335.41 87.05 331.36 87.17 326.36 87.21C321.36 87.25 317.3 87.21 317.3 87.09C317.3 86.97 321.35 86.87 326.36 86.83C331.37 86.79 335.41 86.84 335.41 86.94Z" fill="#6A7381"/>
<path d="M170.65 92.23H171.02H172.02L175.89 92.14L175.78 92.25C175.78 91.39 175.78 90.46 175.78 89.45C175.78 88.92 175.78 88.45 175.78 87.83C175.842 87.5192 176.001 87.2362 176.235 87.0222C176.469 86.8082 176.765 86.6743 177.08 86.64C177.7 86.64 178.25 86.64 178.93 86.64C179.282 86.6991 179.602 86.8813 179.833 87.1541C180.064 87.4269 180.19 87.7727 180.19 88.13C180.19 89.44 180.19 90.81 180.24 92.22L180.06 92.05H184.94L184.75 92.23C184.75 90.23 184.75 88.23 184.75 86.16C184.75 85.64 184.75 85.16 184.75 84.61C184.729 84.3797 184.658 84.157 184.54 83.958C184.423 83.759 184.262 83.5888 184.07 83.46L181.94 81.36L179.88 79.36L178.88 78.36C178.54 78.03 178.27 77.69 177.88 77.61C177.689 77.5605 177.49 77.5537 177.296 77.59C177.103 77.6263 176.92 77.7048 176.76 77.82C176.46 78.07 176.15 78.43 175.85 78.72L174 80.34C172.9 81.48 171.75 82.53 170.92 83.52C170.676 84.0937 170.59 84.7219 170.67 85.34V87.06C170.67 88.06 170.67 89.06 170.67 89.82C170.67 90.58 170.67 91.11 170.67 91.59C170.67 92.07 170.67 92.22 170.67 92.23C170.658 92.0368 170.658 91.8431 170.67 91.65C170.67 91.17 170.67 90.6 170.67 89.9C170.67 89.2 170.67 88.17 170.6 87.11C170.6 86.56 170.6 85.98 170.6 85.36C170.6 85.05 170.6 84.73 170.6 84.36C170.597 84.0096 170.687 83.6648 170.86 83.36C171.77 82.25 172.86 81.28 173.95 80.1L175.69 78.32C176 78.01 176.26 77.71 176.63 77.39C176.829 77.24 177.059 77.1369 177.303 77.0884C177.547 77.0399 177.799 77.0473 178.04 77.11C178.504 77.274 178.913 77.5651 179.22 77.95L180.22 78.95L182.28 80.95L184.42 83.05C184.619 83.2281 184.8 83.4258 184.96 83.64C185.12 83.8842 185.21 84.168 185.22 84.46C185.22 84.97 185.22 85.46 185.22 86.01C185.22 88.1 185.22 90.13 185.22 92.09V92.28H185H180.12H179.95V92.11C179.95 90.69 179.95 89.32 179.95 88.02C179.956 87.7342 179.857 87.4559 179.674 87.2371C179.49 87.0182 179.232 86.8735 178.95 86.83C178.39 86.83 177.72 86.83 177.18 86.83C176.927 86.8529 176.688 86.9567 176.499 87.126C176.31 87.2954 176.181 87.5212 176.13 87.77C176.13 88.26 176.13 88.84 176.13 89.33V92.3H176.02H172.09H171.09C170.941 92.2931 170.793 92.2696 170.65 92.23Z" fill="#6A7381"/>
<path d="M290.5 88.28C290.5 88.42 275.26 88.54 256.5 88.54C237.74 88.54 222.5 88.42 222.5 88.28C222.5 88.14 237.74 88.02 256.5 88.02C275.26 88.02 290.5 88.14 290.5 88.28Z" fill="#6A7381"/>
<path d="M288.73 404.33H217.28C212.898 404.33 208.695 402.59 205.595 399.492C202.495 396.394 200.753 392.192 200.75 387.81C200.75 383.426 202.492 379.222 205.592 376.122C208.691 373.022 212.896 371.28 217.28 371.28H288.73C293.114 371.28 297.319 373.022 300.418 376.122C303.518 379.222 305.26 383.426 305.26 387.81C305.257 392.192 303.515 396.394 300.415 399.492C297.315 402.59 293.112 404.33 288.73 404.33Z" fill="#2F73DA"/>
<path d="M239.37 390.22L239.97 388.9C240.704 389.41 241.576 389.686 242.47 389.69C243.47 389.69 243.94 389.35 243.94 388.88C243.94 387.46 239.52 388.43 239.52 385.61C239.52 384.32 240.52 383.25 242.72 383.25C243.645 383.228 244.558 383.46 245.36 383.92L244.82 385.25C244.179 384.876 243.452 384.673 242.71 384.66C241.71 384.66 241.27 385.05 241.27 385.53C241.27 386.93 245.68 385.96 245.68 388.75C245.68 390.02 244.63 391.1 242.46 391.1C241.365 391.126 240.287 390.819 239.37 390.22Z" fill="white"/>
<path d="M250.53 390.69C250.118 390.949 249.637 391.078 249.15 391.06C248.867 391.095 248.58 391.067 248.309 390.977C248.039 390.887 247.791 390.738 247.586 390.541C247.38 390.344 247.22 390.103 247.119 389.836C247.018 389.57 246.977 389.284 247 389V386.6H246.1V385.29H247V383.87H248.69V385.29H250.15V386.6H248.69V388.97C248.676 389.071 248.685 389.174 248.716 389.271C248.748 389.368 248.8 389.456 248.87 389.53C248.94 389.604 249.026 389.661 249.121 389.698C249.216 389.734 249.319 389.748 249.42 389.74C249.664 389.746 249.902 389.672 250.1 389.53L250.53 390.69Z" fill="white"/>
<path d="M256.65 387.64V391H255.06V390.28C254.864 390.563 254.595 390.788 254.282 390.93C253.968 391.073 253.622 391.128 253.28 391.09C251.91 391.09 251.1 390.33 251.1 389.32C251.1 388.31 251.83 387.57 253.61 387.57H255C255 386.85 254.57 386.42 253.66 386.42C253.055 386.415 252.465 386.608 251.98 386.97L251.37 385.78C252.123 385.303 252.999 385.06 253.89 385.08C255.61 385.05 256.65 385.87 256.65 387.64ZM254.95 389.13V388.53H253.79C253 388.53 252.79 388.82 252.79 389.21C252.79 389.6 253.15 389.92 253.74 389.92C254.007 389.942 254.274 389.877 254.502 389.735C254.729 389.592 254.904 389.38 255 389.13H254.95Z" fill="white"/>
<path d="M261.79 385.05V386.61H261.42C261.204 386.59 260.986 386.619 260.783 386.695C260.58 386.771 260.396 386.891 260.246 387.048C260.096 387.205 259.984 387.394 259.917 387.6C259.85 387.806 259.83 388.025 259.86 388.24V391H258.17V385.17H259.79V385.94C260.025 385.639 260.33 385.401 260.679 385.246C261.028 385.09 261.409 385.023 261.79 385.05Z" fill="white"/>
<path d="M266.77 390.69C266.358 390.949 265.877 391.078 265.39 391.06C265.102 391.099 264.81 391.072 264.534 390.982C264.258 390.892 264.006 390.741 263.796 390.541C263.587 390.34 263.425 390.094 263.324 389.822C263.222 389.55 263.183 389.259 263.21 388.97V386.57H262.31V385.26H263.21V383.84H264.91V385.26H266.36V386.57H264.91V388.94C264.896 389.04 264.905 389.142 264.936 389.238C264.967 389.334 265.018 389.422 265.087 389.496C265.156 389.57 265.241 389.627 265.335 389.664C265.428 389.701 265.529 389.717 265.63 389.71C265.876 389.714 266.118 389.641 266.32 389.5L266.77 390.69Z" fill="white"/>
<path d="M320.91 325.93C320.91 326.07 290.19 326.19 252.3 326.19C214.41 326.19 183.68 326.07 183.68 325.93C183.68 325.79 214.4 325.67 252.3 325.67C290.2 325.67 320.91 325.78 320.91 325.93Z" fill="#6A7381"/>
<path d="M293.57 334.34C293.57 334.48 275.09 334.6 252.3 334.6C229.51 334.6 211.02 334.48 211.02 334.34C211.02 334.2 229.5 334.08 252.3 334.08C275.1 334.08 293.57 334.19 293.57 334.34Z" fill="#6A7381"/>
<path d="M103.7 458.24L97.6201 480.71L117.37 482.51L121.52 461.12L103.7 458.24Z" fill="#2F73DA"/>
<path d="M117.94 480.68C116.976 480.741 116.008 480.708 115.05 480.58C113.27 480.44 110.82 480.17 108.12 479.82L101.22 478.89C100.257 478.817 99.3025 478.653 98.3701 478.4C99.3347 478.34 100.303 478.377 101.26 478.51C103.04 478.65 105.49 478.93 108.19 479.27L115.09 480.19C116.053 480.27 117.006 480.434 117.94 480.68Z" fill="#263238"/>
<g opacity="0.6">
<path opacity="0.6" d="M97.6201 480.71L117.37 482.51L117.69 480.86L98.1901 478.38L97.6401 480.48" fill="white"/>
</g>
<path d="M107.43 479.71C107.909 476.81 108.536 473.936 109.31 471.1C109.934 468.227 110.711 465.389 111.64 462.6C111.161 465.5 110.533 468.374 109.76 471.21C109.131 474.082 108.353 476.919 107.43 479.71Z" fill="#263238"/>
<path d="M116.85 480.53C117.163 479.158 117.163 477.732 116.85 476.36C116.505 474.882 115.757 473.529 114.69 472.45C113.361 471.155 111.628 470.357 109.78 470.19C107.932 469.993 106.072 470.415 104.49 471.39C103.211 472.208 102.156 473.332 101.42 474.66C100.763 475.906 100.339 477.262 100.17 478.66C100.17 478.66 100.17 478.55 100.17 478.36C100.149 478.074 100.149 477.786 100.17 477.5C100.302 476.452 100.621 475.436 101.11 474.5C101.849 473.074 102.949 471.868 104.3 471C105.954 469.953 107.913 469.495 109.86 469.7C111.634 469.838 113.314 470.555 114.642 471.74C115.969 472.925 116.872 474.513 117.21 476.26C117.423 477.299 117.423 478.371 117.21 479.41C117.15 479.689 117.07 479.963 116.97 480.23C116.91 480.44 116.86 480.54 116.85 480.53Z" fill="#263238"/>
<path d="M185.22 452.21L183.9 472.21C183.9 472.21 203.76 478.8 203.9 482.52L165.09 482.8L165.87 451.62L185.22 452.21Z" fill="#2F73DA"/>
<g opacity="0.6">
<path opacity="0.6" d="M172 470.13C171.624 470.231 171.298 470.468 171.086 470.795C170.874 471.121 170.79 471.515 170.85 471.9C170.937 472.281 171.167 472.615 171.493 472.831C171.819 473.047 172.215 473.129 172.6 473.06C173 472.951 173.345 472.697 173.567 472.348C173.789 471.998 173.872 471.578 173.8 471.17C173.667 470.784 173.39 470.463 173.027 470.277C172.663 470.091 172.241 470.052 171.85 470.17" fill="white"/>
</g>
<g opacity="0.6">
<path opacity="0.6" d="M165.07 482.76L165.15 479.61L202.63 480.61C203.028 480.814 203.369 481.113 203.622 481.481C203.875 481.85 204.033 482.276 204.08 482.72L165.07 482.76Z" fill="white"/>
</g>
<path d="M184.54 472C184.54 472.19 183.54 472.25 182.62 472.83C181.7 473.41 181.15 474.19 180.98 474.11C180.81 474.03 181.12 472.95 182.29 472.26C183.46 471.57 184.58 471.82 184.54 472Z" fill="#263238"/>
<path d="M188.55 473.8C188.55 473.98 187.76 474.28 187.09 475.06C186.42 475.84 186.21 476.69 186.03 476.67C185.85 476.65 185.75 475.58 186.6 474.67C187.45 473.76 188.55 473.62 188.55 473.8Z" fill="#263238"/>
<path d="M190.72 478.74C190.54 478.74 190.31 477.82 190.83 476.8C191.35 475.78 192.24 475.39 192.32 475.55C192.4 475.71 191.83 476.25 191.42 477.09C191.01 477.93 190.91 478.73 190.72 478.74Z" fill="#263238"/>
<path d="M184.33 467.41C184.25 467.58 183.39 467.3 182.33 467.34C181.27 467.38 180.42 467.69 180.33 467.52C180.24 467.35 181.06 466.71 182.33 466.68C183.6 466.65 184.43 467.27 184.33 467.41Z" fill="#263238"/>
<path d="M184.52 463.38C183.879 463.533 183.208 463.509 182.58 463.31C181.888 463.166 181.216 462.937 180.58 462.63C180.202 462.441 179.835 462.23 179.48 462C179.268 461.872 179.076 461.714 178.91 461.53C178.791 461.393 178.72 461.221 178.709 461.04C178.699 460.859 178.748 460.68 178.85 460.53C178.947 460.397 179.075 460.29 179.224 460.218C179.372 460.147 179.535 460.113 179.7 460.12C179.944 460.125 180.187 460.165 180.42 460.24C180.833 460.354 181.234 460.504 181.62 460.69C182.264 461.006 182.854 461.421 183.37 461.92C184.25 462.78 184.53 463.5 184.47 463.53C184.41 463.56 183.96 462.99 183.06 462.27C182.537 461.867 181.966 461.531 181.36 461.27C181.006 461.112 180.637 460.989 180.26 460.9C179.85 460.78 179.5 460.76 179.39 460.9C179.28 461.04 179.39 461 179.39 461.12C179.517 461.255 179.662 461.373 179.82 461.47C180.14 461.695 180.474 461.899 180.82 462.08C181.413 462.399 182.036 462.66 182.68 462.86C183.305 462.988 183.92 463.161 184.52 463.38Z" fill="#263238"/>
<path d="M184.27 463.65C183.922 463.08 183.761 462.416 183.81 461.75C183.789 460.598 184.087 459.463 184.67 458.47C184.783 458.217 184.959 457.998 185.182 457.834C185.404 457.669 185.665 457.564 185.94 457.53C186.113 457.535 186.282 457.591 186.424 457.691C186.566 457.79 186.676 457.929 186.74 458.09C186.832 458.321 186.892 458.563 186.92 458.81C186.981 459.245 186.981 459.685 186.92 460.12C186.791 460.849 186.485 461.536 186.03 462.12C185.24 463.12 184.44 463.31 184.43 463.24C184.42 463.17 185.04 462.8 185.65 461.85C186 461.301 186.228 460.684 186.32 460.04C186.37 459.668 186.37 459.292 186.32 458.92C186.27 458.51 186.12 458.17 185.97 458.21C185.82 458.25 185.44 458.5 185.27 458.82C185.068 459.136 184.898 459.471 184.76 459.82C184.523 460.439 184.374 461.089 184.32 461.75C184.19 462.9 184.37 463.62 184.27 463.65Z" fill="#263238"/>
<path d="M185.22 278.83L126.09 278.39L97.52 466.07L122.06 469.18L153.51 314.86L162.92 469.73L162.95 470.19L189.49 469.73L185.22 278.83Z" fill="#263238"/>
<path d="M158.33 294C158.735 293.95 159.142 293.924 159.55 293.92L163.11 293.79L175.89 293.43H176.13V293.68C176.13 297.39 176.13 301.53 176.13 305.94V306.05L176.04 306.13L173.82 308.13L167.26 314.13L167.08 314.29L166.91 314.14L158.16 306.34L158.09 306.28V306.18C158.09 302.46 158.17 299.39 158.2 297.18C158.2 296.18 158.2 295.37 158.25 294.76C158.244 294.486 158.26 294.211 158.3 293.94C158.315 294.24 158.315 294.54 158.3 294.84C158.3 295.46 158.3 296.29 158.36 297.31C158.36 299.48 158.42 302.5 158.47 306.17L158.4 306.02L167.21 313.74H166.86L173.41 307.74L175.64 305.74L175.55 305.94C175.55 301.53 175.55 297.39 175.55 293.68L175.8 293.92L163.16 294.04H158.58C158.496 294.034 158.412 294.02 158.33 294Z" fill="#455A64"/>
<path d="M130.5 293.23C130.863 293.206 131.227 293.206 131.59 293.23L134.77 293.49L146.27 294.49H146.51V294.73C146.08 298.36 145.58 302.49 145.06 306.9V307.01L144.98 307.08L142.43 309.08L136.14 314.08L135.93 314.24L135.77 314.04L128.9 305.34L128.84 305.27V305.18C129.34 301.5 129.75 298.47 130.04 296.28C130.19 295.28 130.3 294.49 130.39 293.87C130.41 293.599 130.461 293.33 130.54 293.07C130.534 293.371 130.511 293.672 130.47 293.97C130.41 294.597 130.33 295.417 130.23 296.43L129.23 305.24V305.08C131.23 307.59 133.61 310.52 136.18 313.71H135.81L142.09 308.71L144.64 306.71L144.54 306.88C145.09 302.48 145.61 298.35 146.06 294.72L146.27 294.98L134.94 293.72L131.72 293.33C131.312 293.322 130.904 293.289 130.5 293.23Z" fill="#455A64"/>
<path d="M166.68 321.71C165.75 321.356 164.853 320.921 164 320.41C162.37 319.56 160.12 318.41 157.61 317.14C155.1 315.87 152.82 314.8 151.16 314.01C150.238 313.63 149.348 313.175 148.5 312.65C149.468 312.887 150.41 313.222 151.31 313.65C153.02 314.35 155.31 315.39 157.86 316.65C160.41 317.91 162.6 319.14 164.18 320.08C165.063 320.544 165.9 321.089 166.68 321.71Z" fill="#455A64"/>
<path d="M165.92 326.27C165.213 326.14 164.535 325.883 163.92 325.51C160.797 323.909 158.238 321.389 156.59 318.29C156.207 317.677 155.939 316.999 155.8 316.29C156.991 318.387 158.427 320.334 160.08 322.09C161.859 323.704 163.818 325.107 165.92 326.27Z" fill="#455A64"/>
<path d="M182.61 380.5C182.574 380.845 182.482 381.183 182.34 381.5C182.018 382.371 181.606 383.205 181.11 383.99C179.472 386.619 177.061 388.676 174.206 389.879C171.352 391.082 168.196 391.373 165.17 390.71C164.263 390.518 163.378 390.234 162.53 389.86C162.211 389.742 161.911 389.577 161.64 389.37C162.823 389.763 164.024 390.097 165.24 390.37C168.188 390.915 171.232 390.585 173.995 389.421C176.758 388.257 179.12 386.31 180.79 383.82C182.08 381.86 182.51 380.46 182.61 380.5Z" fill="#455A64"/>
<path d="M178.72 378.9C178.031 379.363 177.266 379.702 176.46 379.9C174.555 380.5 172.576 380.836 170.58 380.9C168.593 380.974 166.604 380.857 164.64 380.55C163.817 380.468 163.007 380.283 162.23 380C162.23 379.81 165.97 380.53 170.56 380.36C172.516 380.299 174.46 380.031 176.36 379.56C177.81 379.17 178.69 378.82 178.72 378.9Z" fill="#455A64"/>
<path d="M134.76 380C134.166 380.716 133.473 381.342 132.7 381.86C130.897 383.199 128.914 384.276 126.81 385.06C124.704 385.843 122.5 386.327 120.26 386.5C119.335 386.612 118.398 386.589 117.48 386.43C117.48 386.34 118.54 386.33 120.22 386.12C124.607 385.572 128.805 384.007 132.48 381.55C133.212 380.994 133.973 380.476 134.76 380Z" fill="#455A64"/>
<path d="M129.57 379.79C127.815 380.318 125.968 380.472 124.15 380.24C122.316 380.174 120.516 379.731 118.86 378.94C118.86 378.78 121.24 379.47 124.19 379.7C127.14 379.93 129.55 379.63 129.57 379.79Z" fill="#455A64"/>
<path d="M153.16 316.16C152.324 316.665 151.431 317.068 150.5 317.36C148.288 318.165 146.004 318.758 143.68 319.13C141.366 319.504 139.022 319.655 136.68 319.58C135.704 319.592 134.731 319.488 133.78 319.27C134.744 319.182 135.713 319.158 136.68 319.2C141.343 319.137 145.971 318.396 150.42 317C151.314 316.661 152.229 316.38 153.16 316.16Z" fill="#455A64"/>
<path d="M151.54 310.1C151.69 310.1 151.82 310.56 151.83 311.1C151.84 311.64 151.72 312.1 151.57 312.1C151.42 312.1 151.3 311.64 151.29 311.1C151.28 310.56 151.39 310.1 151.54 310.1Z" fill="#455A64"/>
<path d="M151.55 305.94C151.7 305.94 151.82 306.41 151.81 306.94C151.8 307.47 151.69 307.94 151.54 307.94C151.39 307.94 151.27 307.47 151.27 306.94C151.27 306.41 151.4 305.94 151.55 305.94Z" fill="#455A64"/>
<path d="M151.63 301.79C151.78 301.79 151.89 302.26 151.88 302.79C151.87 303.32 151.73 303.79 151.58 303.79C151.43 303.79 151.32 303.32 151.34 302.79C151.36 302.26 151.49 301.78 151.63 301.79Z" fill="#455A64"/>
<path d="M151.8 297.63C151.95 297.63 152.05 298.11 152.02 298.68C151.99 299.25 151.86 299.68 151.71 299.68C151.56 299.68 151.46 299.2 151.48 298.68C151.5 298.16 151.65 297.62 151.8 297.63Z" fill="#455A64"/>
<path d="M152.05 293.48C152.2 293.48 152.29 293.96 152.25 294.54C152.21 295.12 152.06 295.54 151.91 295.54C151.76 295.54 151.67 295.05 151.71 294.48C151.75 293.91 151.9 293.47 152.05 293.48Z" fill="#455A64"/>
<path d="M152.37 289.34C152.52 289.34 152.6 289.82 152.56 290.39C152.52 290.96 152.35 291.39 152.2 291.39C152.05 291.39 151.97 290.9 152.02 290.33C152.07 289.76 152.23 289.32 152.37 289.34Z" fill="#455A64"/>
<path d="M152.7 285.94C152.85 285.94 152.94 286.27 152.9 286.63C152.86 286.99 152.72 287.28 152.57 287.27C152.42 287.26 152.33 286.94 152.37 286.58C152.41 286.22 152.55 285.93 152.7 285.94Z" fill="#455A64"/>
<path d="M119.27 465.06C119.42 465.06 119.45 465.57 119.33 466.14C119.21 466.71 119.01 467.14 118.86 467.14C118.71 467.14 118.69 466.63 118.8 466.07C118.91 465.51 119.13 465 119.27 465.06Z" fill="#455A64"/>
<path d="M120.09 461C120.23 461 120.26 461.51 120.15 462.07C120.04 462.63 119.83 463.07 119.68 463.07C119.53 463.07 119.51 462.56 119.62 461.99C119.73 461.42 119.94 461 120.09 461Z" fill="#455A64"/>
<path d="M120.9 456.91C121.05 456.91 121.08 457.42 120.96 457.98C120.84 458.54 120.64 458.98 120.5 458.98C120.36 458.98 120.32 458.47 120.43 457.91C120.54 457.35 120.76 456.88 120.9 456.91Z" fill="#455A64"/>
<path d="M121.72 452.83C121.87 452.83 121.89 453.34 121.78 453.91C121.67 454.48 121.46 454.91 121.31 454.91C121.16 454.91 121.14 454.4 121.25 453.84C121.36 453.28 121.57 452.81 121.72 452.83Z" fill="#455A64"/>
<path d="M122.53 448.76C122.68 448.76 122.71 449.27 122.6 449.83C122.49 450.39 122.27 450.83 122.13 450.83C121.99 450.83 121.95 450.32 122.07 449.75C122.19 449.18 122.39 448.73 122.53 448.76Z" fill="#455A64"/>
<path d="M123.35 444.68C123.5 444.68 123.52 445.19 123.41 445.75C123.3 446.31 123.09 446.75 122.94 446.75C122.79 446.75 122.77 446.24 122.88 445.68C122.99 445.12 123.2 444.65 123.35 444.68Z" fill="#455A64"/>
<path d="M124.17 440.61C124.31 440.61 124.34 441.11 124.23 441.68C124.12 442.25 123.9 442.68 123.76 442.68C123.62 442.68 123.58 442.17 123.7 441.61C123.82 441.05 124 440.58 124.17 440.61Z" fill="#455A64"/>
<path d="M125 436.53C125.15 436.53 125.17 437.04 125.06 437.6C124.95 438.16 124.74 438.6 124.59 438.6C124.44 438.6 124.42 438.09 124.53 437.52C124.64 436.95 124.83 436.5 125 436.53Z" fill="#455A64"/>
<path d="M125.8 432.45C125.94 432.45 125.97 432.96 125.86 433.52C125.75 434.08 125.54 434.52 125.39 434.52C125.24 434.52 125.21 434.01 125.33 433.45C125.45 432.89 125.65 432.42 125.8 432.45Z" fill="#455A64"/>
<path d="M126.61 428.38C126.76 428.38 126.79 428.88 126.67 429.45C126.55 430.02 126.35 430.45 126.2 430.45C126.05 430.45 126.03 429.94 126.14 429.38C126.25 428.82 126.47 428.35 126.61 428.38Z" fill="#455A64"/>
<path d="M127.43 424.3C127.57 424.3 127.6 424.81 127.49 425.37C127.38 425.93 127.17 426.37 127.02 426.37C126.87 426.37 126.85 425.86 126.96 425.29C127.07 424.72 127.28 424.27 127.43 424.3Z" fill="#455A64"/>
<path d="M128.24 420.22C128.39 420.22 128.42 420.73 128.3 421.29C128.18 421.85 127.98 422.29 127.84 422.29C127.7 422.29 127.66 421.78 127.77 421.22C127.88 420.66 128.1 420.19 128.24 420.22Z" fill="#455A64"/>
<path d="M129.06 416.15C129.2 416.15 129.23 416.66 129.12 417.22C129.01 417.78 128.8 418.22 128.65 418.22C128.5 418.22 128.48 417.71 128.59 417.15C128.7 416.59 128.91 416.12 129.06 416.15Z" fill="#455A64"/>
<path d="M129.87 412.07C130.02 412.07 130.05 412.58 129.94 413.14C129.83 413.7 129.61 414.14 129.47 414.14C129.33 414.14 129.29 413.63 129.4 413.07C129.51 412.51 129.73 412 129.87 412.07Z" fill="#455A64"/>
<path d="M130.69 408C130.84 408 130.86 408.51 130.75 409.08C130.64 409.65 130.43 410.08 130.28 410.08C130.13 410.08 130.11 409.57 130.22 409.01C130.33 408.45 130.54 408 130.69 408Z" fill="#455A64"/>
<path d="M131.5 403.92C131.65 403.92 131.68 404.43 131.57 404.99C131.46 405.55 131.24 405.99 131.1 405.99C130.96 405.99 130.92 405.49 131.04 404.92C131.16 404.35 131.36 403.89 131.5 403.92Z" fill="#455A64"/>
<path d="M132.32 399.84C132.47 399.84 132.49 400.35 132.38 400.91C132.27 401.47 132.06 401.91 131.91 401.91C131.76 401.91 131.74 401.4 131.85 400.84C131.96 400.28 132.17 399.81 132.32 399.84Z" fill="#455A64"/>
<path d="M133.14 395.76C133.28 395.76 133.31 396.27 133.2 396.84C133.09 397.41 132.87 397.84 132.73 397.84C132.59 397.84 132.55 397.33 132.67 396.77C132.79 396.21 133 395.73 133.14 395.76Z" fill="#455A64"/>
<path d="M134 391.69C134.15 391.69 134.18 392.2 134.06 392.76C133.94 393.32 133.74 393.76 133.59 393.76C133.44 393.76 133.42 393.25 133.53 392.68C133.64 392.11 133.8 391.66 134 391.69Z" fill="#455A64"/>
<path d="M134.77 387.61C134.91 387.61 134.94 388.12 134.83 388.68C134.72 389.24 134.51 389.68 134.36 389.68C134.21 389.68 134.18 389.17 134.3 388.61C134.42 388.05 134.62 387.58 134.77 387.61Z" fill="#455A64"/>
<path d="M135.58 383.53C135.73 383.53 135.76 384.04 135.64 384.61C135.52 385.18 135.32 385.61 135.17 385.61C135.02 385.61 135 385.1 135.11 384.54C135.22 383.98 135.44 383.5 135.58 383.53Z" fill="#455A64"/>
<path d="M136.4 379.46C136.54 379.46 136.57 379.97 136.46 380.53C136.35 381.09 136.14 381.53 135.99 381.53C135.84 381.53 135.82 381.02 135.93 380.45C136.04 379.88 136.25 379.43 136.4 379.46Z" fill="#455A64"/>
<path d="M137.21 375.38C137.36 375.38 137.39 375.89 137.27 376.45C137.15 377.01 136.95 377.45 136.81 377.45C136.67 377.45 136.63 376.94 136.74 376.38C136.85 375.82 137.07 375.35 137.21 375.38Z" fill="#455A64"/>
<path d="M138 371.3C138.15 371.3 138.17 371.81 138.06 372.38C137.95 372.95 137.74 373.38 137.59 373.38C137.44 373.38 137.42 372.87 137.53 372.31C137.64 371.75 137.88 371.27 138 371.3Z" fill="#455A64"/>
<path d="M138.84 367.23C138.99 367.23 139.02 367.74 138.91 368.3C138.8 368.86 138.58 369.3 138.44 369.3C138.3 369.3 138.26 368.79 138.37 368.22C138.48 367.65 138.7 367.2 138.84 367.23Z" fill="#455A64"/>
<path d="M139.66 363.15C139.81 363.15 139.83 363.66 139.72 364.22C139.61 364.78 139.4 365.22 139.25 365.22C139.1 365.22 139.08 364.71 139.19 364.15C139.3 363.59 139.51 363.12 139.66 363.15Z" fill="#455A64"/>
<path d="M140.48 359.07C140.62 359.07 140.65 359.58 140.54 360.15C140.43 360.72 140.21 361.15 140.07 361.15C139.93 361.15 139.89 360.64 140.01 360.08C140.13 359.52 140.33 359.05 140.48 359.07Z" fill="#455A64"/>
<path d="M141.29 355C141.44 355 141.46 355.51 141.35 356.07C141.24 356.63 141.03 357.07 140.88 357.07C140.73 357.07 140.71 356.56 140.82 355.99C140.93 355.42 141.14 355 141.29 355Z" fill="#455A64"/>
<path d="M142.11 350.92C142.25 350.92 142.28 351.43 142.17 351.99C142.06 352.55 141.84 352.99 141.7 352.99C141.56 352.99 141.52 352.48 141.64 351.92C141.76 351.36 142 350.89 142.11 350.92Z" fill="#455A64"/>
<path d="M142.92 346.85C143.07 346.85 143.1 347.35 142.98 347.92C142.86 348.49 142.66 348.92 142.51 348.92C142.36 348.92 142.34 348.41 142.45 347.85C142.56 347.29 142.78 346.82 142.92 346.85Z" fill="#455A64"/>
<path d="M143.74 342.77C143.88 342.77 143.91 343.28 143.8 343.84C143.69 344.4 143.48 344.84 143.33 344.84C143.18 344.84 143.16 344.33 143.27 343.76C143.38 343.19 143.59 342.74 143.74 342.77Z" fill="#455A64"/>
<path d="M144.55 338.69C144.7 338.69 144.73 339.2 144.61 339.76C144.49 340.32 144.29 340.76 144.14 340.76C143.99 340.76 143.97 340.25 144.08 339.69C144.19 339.13 144.41 338.66 144.55 338.69Z" fill="#455A64"/>
<path d="M145.37 334.62C145.51 334.62 145.54 335.13 145.43 335.69C145.32 336.25 145.11 336.69 144.96 336.69C144.81 336.69 144.79 336.18 144.9 335.62C145.01 335.06 145.22 334.59 145.37 334.62Z" fill="#455A64"/>
<path d="M146.18 330.54C146.33 330.54 146.36 331.05 146.25 331.61C146.14 332.17 145.92 332.61 145.78 332.61C145.64 332.61 145.6 332.1 145.71 331.54C145.82 330.98 146 330.51 146.18 330.54Z" fill="#455A64"/>
<path d="M147 326.46C147.15 326.46 147.17 326.97 147.06 327.53C146.95 328.09 146.74 328.53 146.59 328.53C146.44 328.53 146.42 328.02 146.53 327.46C146.64 326.9 146.85 326.43 147 326.46Z" fill="#455A64"/>
<path d="M147.81 322.39C147.96 322.39 147.99 322.9 147.88 323.46C147.77 324.02 147.55 324.46 147.41 324.46C147.27 324.46 147.23 323.96 147.35 323.39C147.47 322.82 147.67 322.36 147.81 322.39Z" fill="#455A64"/>
<path d="M148.63 318.31C148.78 318.31 148.8 318.82 148.69 319.38C148.58 319.94 148.37 320.38 148.22 320.38C148.07 320.38 148.05 319.87 148.16 319.31C148.27 318.75 148.48 318.28 148.63 318.31Z" fill="#455A64"/>
<path d="M230.14 192.59C230.14 192.59 237.06 182.22 237.25 182.13C237.25 182.13 243.49 171.61 245.57 171.61C247.65 171.61 246.9 173.74 244.75 177.51C243.72 179.15 243.017 180.973 242.68 182.88L247.81 185.97C247.81 185.97 251.24 184.65 251.38 187.84C251.33 189.303 251.133 190.757 250.79 192.18C250.58 193.32 250.07 194.53 248.99 194.1C248.722 194.011 248.49 193.839 248.326 193.609C248.162 193.379 248.076 193.102 248.08 192.82C248.01 190.93 248.36 190.23 248.08 190.23C247.8 190.23 244.39 200.14 244.39 200.14L230.14 192.59Z" fill="#FFBE9D"/>
<path d="M244.11 184.45C244.626 184.063 245.179 183.728 245.76 183.45C246.343 183.177 246.992 183.076 247.63 183.16C247.871 183.181 248.102 183.26 248.306 183.39C248.51 183.519 248.679 183.696 248.801 183.904C248.922 184.113 248.992 184.348 249.004 184.589C249.016 184.83 248.97 185.07 248.87 185.29C248.665 185.803 248.378 186.279 248.02 186.7" fill="#FFBE9D"/>
<path d="M241.77 182.36C242.26 182.003 242.783 181.691 243.33 181.43C243.882 181.173 244.496 181.08 245.1 181.16C245.487 181.202 245.844 181.387 246.1 181.68C246.251 181.892 246.348 182.138 246.381 182.396C246.414 182.654 246.383 182.917 246.29 183.16C245.824 183.896 245.288 184.586 244.69 185.22" fill="#FFBE9D"/>
<path d="M232.56 186.74L222.56 208.12L233.56 219.39L239.3 203.45C239.3 203.45 242.38 204.06 243.64 202.02C245.04 199.74 246.88 193.16 246.88 193.16L232.56 186.74Z" fill="#FFBE9D"/>
<path d="M239.7 186.15C239.781 185.054 240.192 184.008 240.88 183.15C241.335 182.524 241.922 182.005 242.6 181.63C243.11 181.36 243.46 181.26 243.49 181.32C243.52 181.38 242.29 182.12 241.32 183.47C240.35 184.82 239.87 186.22 239.7 186.15Z" fill="#EB996E"/>
<path d="M250.79 186.24C250.79 186.31 250.4 186.12 249.79 186.02C249.046 185.884 248.277 186.004 247.61 186.36C246.96 186.783 246.411 187.343 246 188C245.65 188.5 245.41 188.81 245.34 188.77C245.27 188.73 245.39 188.37 245.68 187.77C246.046 186.988 246.634 186.331 247.37 185.88C247.756 185.672 248.18 185.544 248.616 185.505C249.053 185.465 249.493 185.514 249.91 185.65C250.55 185.87 250.83 186.19 250.79 186.24Z" fill="#EB996E"/>
<path d="M247.07 183.22C246.245 183.604 245.458 184.066 244.72 184.6C243.6 185.6 243.05 186.75 242.9 186.68C243.043 185.694 243.567 184.803 244.36 184.2C244.88 183.718 245.512 183.374 246.2 183.2C246.73 183.12 247.06 183.16 247.07 183.22Z" fill="#EB996E"/>
<path d="M249.53 187.84C249.67 187.79 249.93 188.62 249.4 189.44C248.87 190.26 248.02 190.44 248.01 190.25C248 190.06 248.55 189.81 248.95 189.16C249.35 188.51 249.37 187.86 249.53 187.84Z" fill="#EB996E"/>
<path d="M230.17 192.18C230.17 192.18 229.82 185.8 231.36 184.35C232.9 182.9 237.36 184.41 237.36 184.41" fill="#FFBE9D"/>
<path d="M238 181.37C237.391 182.671 236.621 183.89 235.71 185C234.943 186.214 234.029 187.329 232.99 188.32C234.355 185.8 236.035 183.465 237.99 181.37H238Z" fill="#EB996E"/>
<path d="M149.43 133L149.28 182.79L170.64 183.79L171.26 171.68C171.26 171.68 178.85 173.19 180.8 166.14C182.06 161.64 181.74 126.85 181.74 126.85L149.43 133Z" fill="#FFBE9D"/>
<path d="M184.55 130.36C181.19 131.36 180.46 136.83 180.46 136.83L175.18 148.48C172.49 146.38 168.88 146.48 168.18 151.23C167.68 154.64 171.93 155.33 171.93 155.33C169.46 159.54 167.78 162.94 164.18 166.94C160.29 171.27 158.11 171.7 153.88 171.77H149.23C149.23 171.77 146.95 164.37 142.73 145.87C138.04 125.34 162.32 127.98 166.82 122.74C174.17 114.21 195.16 127.33 184.55 130.36Z" fill="#263238"/>
<path d="M143.19 147.8C139.25 145.16 138.9 137.8 141.19 133.33C142.367 131.117 144.108 129.254 146.236 127.93C148.364 126.606 150.805 125.868 153.31 125.79C153.984 125.835 154.661 125.76 155.31 125.57C156.184 125.107 156.917 124.416 157.43 123.57C160.95 119 164.43 114.51 170.96 114.51C172.401 114.438 173.832 114.785 175.08 115.51C176.243 116.302 177.115 117.455 177.56 118.79C178.76 118.141 180.051 117.676 181.39 117.41C182.061 117.278 182.752 117.293 183.417 117.454C184.081 117.614 184.703 117.917 185.24 118.34C185.759 118.785 186.104 119.4 186.214 120.075C186.324 120.751 186.191 121.443 185.84 122.03C186.949 122.014 188.028 122.396 188.88 123.105C189.733 123.815 190.304 124.806 190.49 125.9C190.84 128.09 187.71 129.63 187.38 129.8C187.38 129.8 189.1 133.4 185 135.56C183.35 136.42 181.2 135.38 181 135.25" fill="#263238"/>
<path d="M158.79 152.59C159.079 153.839 159.037 155.142 158.67 156.37C158.47 157.636 157.95 158.83 157.16 159.84C157.01 159.77 157.7 158.24 158.16 156.25C158.62 154.26 158.63 152.59 158.79 152.59Z" fill="#455A64"/>
<path d="M161.37 150.15C161.557 151.364 161.489 152.604 161.17 153.79C161.027 155.009 160.646 156.187 160.05 157.26C160.132 156.054 160.33 154.858 160.64 153.69C160.777 152.491 161.021 151.306 161.37 150.15Z" fill="#455A64"/>
<path d="M168.77 141.93C168.77 142 168.22 142.44 167.45 143.34C166.459 144.531 165.681 145.884 165.15 147.34C164.617 148.798 164.19 150.291 163.87 151.81C163.778 152.461 163.6 153.096 163.34 153.7C163.292 153.03 163.343 152.356 163.49 151.7C163.706 150.13 164.091 148.587 164.64 147.1C165.201 145.608 166.062 144.246 167.17 143.1C167.597 142.582 168.147 142.18 168.77 141.93Z" fill="#455A64"/>
<path d="M171.76 136.33C172.006 136.74 172.15 137.203 172.18 137.68C172.491 139.972 171.907 142.297 170.55 144.17C170.03 144.87 169.55 145.17 169.55 145.17C170.363 143.852 171.008 142.438 171.47 140.96C171.761 139.435 171.858 137.879 171.76 136.33Z" fill="#455A64"/>
<path d="M146.27 148.77C146.19 148.9 145.54 148.67 144.8 148.26C144.06 147.85 143.53 147.42 143.61 147.26C143.69 147.1 144.33 147.35 145.07 147.76C145.81 148.17 146.34 148.64 146.27 148.77Z" fill="#455A64"/>
<path d="M156.59 143.45C156.677 144.225 156.458 145.003 155.98 145.62C155.32 146.72 154.43 147.28 154.34 147.17C154.25 147.06 154.91 146.35 155.51 145.34C156.11 144.33 156.43 143.42 156.59 143.45Z" fill="#455A64"/>
<path d="M159.76 141.75C159.737 142.694 159.403 143.605 158.81 144.34C157.95 145.64 156.88 146.34 156.81 146.22C157.291 145.464 157.815 144.736 158.38 144.04C158.792 143.249 159.253 142.484 159.76 141.75Z" fill="#455A64"/>
<path d="M175.54 120.9C175.54 120.9 175.13 120.59 174.36 120.15C173.255 119.568 172.029 119.253 170.78 119.23C168.931 119.183 167.107 119.672 165.53 120.64C163.628 121.887 162.087 123.611 161.06 125.64C160.284 127.125 159.674 128.691 159.24 130.31L159.16 130.62L158.87 130.47C157.4 129.698 155.77 129.28 154.11 129.25C152.792 129.218 151.479 129.418 150.23 129.84C149.12 130.251 148.057 130.781 147.06 131.42C147.265 131.177 147.504 130.965 147.77 130.79C148.494 130.267 149.284 129.843 150.12 129.53C151.398 129.046 152.754 128.802 154.12 128.81C155.858 128.807 157.572 129.218 159.12 130.01L158.74 130.18C159.168 128.515 159.785 126.904 160.58 125.38C161.661 123.276 163.283 121.498 165.28 120.23C166.943 119.235 168.865 118.759 170.8 118.86C172.099 118.921 173.362 119.31 174.47 119.99C174.764 120.18 175.038 120.397 175.29 120.64C175.47 120.79 175.55 120.88 175.54 120.9Z" fill="#455A64"/>
<path d="M186.77 123.61C186.77 123.61 187.36 123.45 188 124.16C188.359 124.597 188.535 125.156 188.49 125.72C188.434 126.091 188.293 126.443 188.078 126.75C187.862 127.058 187.579 127.311 187.25 127.49C186.462 127.94 185.531 128.069 184.65 127.85C183.678 127.603 182.766 127.161 181.97 126.55C181.134 125.901 180.259 125.303 179.35 124.76C178.365 124.226 177.302 123.852 176.2 123.65C174.05 123.268 171.838 123.419 169.76 124.09C168.06 124.65 166.454 125.466 165 126.51C163.673 127.514 162.401 128.589 161.19 129.73C161.428 129.342 161.713 128.986 162.04 128.67C162.875 127.768 163.789 126.941 164.77 126.2C166.229 125.084 167.861 124.212 169.6 123.62C171.755 122.888 174.06 122.716 176.3 123.12C177.458 123.333 178.575 123.728 179.61 124.29C180.533 124.851 181.418 125.473 182.26 126.15C183 126.728 183.846 127.155 184.75 127.41C185.523 127.627 186.351 127.538 187.06 127.16C187.349 127.016 187.6 126.807 187.796 126.551C187.992 126.294 188.127 125.996 188.19 125.68C188.253 125.188 188.124 124.69 187.83 124.29C187.566 123.947 187.192 123.707 186.77 123.61Z" fill="#455A64"/>
<path d="M126.69 188L107.61 220C105.47 223.74 103.5 227.72 101.61 231.85C100.891 233.923 100.697 236.141 101.046 238.307C101.395 240.473 102.276 242.518 103.61 244.26L103.07 243.48C104.116 244.772 105.437 245.814 106.937 246.531C108.437 247.247 110.078 247.619 111.74 247.62H112.24C114.409 247.619 116.531 246.984 118.345 245.794C120.159 244.603 121.585 242.91 122.45 240.92L128.58 231.62L126.69 188Z" fill="#2F73DA"/>
<path d="M184.26 181.88C179.14 179.26 174.08 178.67 168.56 178.51C162.14 178.32 153.08 177.42 146.15 178.16C146.15 178.16 126.43 179.62 125.06 193.16L127.75 256.66L123.23 283.56L186.46 285.47L186 253.71C186.78 237.2 185.12 213.81 185.12 213.81C186.12 204.93 190.95 200.94 191.64 195.16C192.25 190.06 188.83 184.21 184.26 181.88Z" fill="#2F73DA"/>
<path d="M166.44 257.55C166.168 257.881 165.856 258.177 165.51 258.43C164.609 259.178 163.645 259.847 162.63 260.43C159.262 262.365 155.459 263.416 151.575 263.484C147.691 263.552 143.854 262.636 140.42 260.82C139.386 260.281 138.399 259.655 137.47 258.95C137.104 258.708 136.768 258.422 136.47 258.1C136.53 258.01 137.93 259.2 140.55 260.48C143.959 262.164 147.721 263.008 151.522 262.94C155.324 262.872 159.054 261.895 162.4 260.09C165 258.7 166.37 257.47 166.44 257.55Z" fill="#263238"/>
<path d="M125 193.86C125.046 194.063 125.069 194.271 125.07 194.48C125.07 194.95 125.14 195.53 125.18 196.26C125.25 197.87 125.36 200.08 125.48 202.78C125.72 208.36 126.03 215.95 126.38 224.33C126.73 232.71 127.11 240.33 127.38 245.87C127.52 248.57 127.63 250.78 127.71 252.39C127.71 253.12 127.77 253.7 127.79 254.17C127.814 254.376 127.814 254.584 127.79 254.79C127.734 254.591 127.701 254.386 127.69 254.18C127.64 253.71 127.58 253.13 127.51 252.41C127.36 250.87 127.2 248.64 127.01 245.89C126.63 240.38 126.23 232.77 125.87 224.35C125.51 215.93 125.27 208.35 125.13 202.8C125.13 200.09 125.03 197.88 125 196.26C125 195.54 125 194.95 125 194.49C124.977 194.281 124.977 194.069 125 193.86Z" fill="#263238"/>
<path d="M121 197.23C120.952 197.403 120.878 197.569 120.78 197.72L120.07 199.09C119.43 200.27 118.48 201.96 117.26 204.02C114.86 208.17 111.26 213.73 107.61 220.02C105.78 223.18 104.24 226.3 102.9 229.15C101.636 231.624 101.004 234.372 101.06 237.15C101.156 239.022 101.658 240.851 102.53 242.51C103.15 243.68 103.67 244.22 103.62 244.26C103.48 244.147 103.353 244.02 103.24 243.88C102.906 243.481 102.606 243.057 102.34 242.61C101.374 240.949 100.805 239.087 100.68 237.17C100.56 234.319 101.165 231.483 102.44 228.93C103.77 226.04 105.3 222.93 107.14 219.73C110.8 213.39 114.45 207.88 116.93 203.73C118.15 201.73 119.15 200.11 119.88 198.89C120.21 198.37 120.47 197.89 120.69 197.58C120.91 197.27 121 197.22 121 197.23Z" fill="#263238"/>
<path d="M237.3 214.66L222.67 205.09L213.43 221.09C213.43 221.09 200.63 203.3 194.82 192.88C189.46 183.28 182.54 180.7 179.2 180C178.971 179.953 178.733 179.96 178.507 180.022C178.282 180.085 178.074 180.199 177.901 180.358C177.728 180.516 177.595 180.713 177.513 180.932C177.432 181.152 177.403 181.387 177.43 181.62L182.43 216.22C183.07 218.02 193.63 233.33 199.53 241.03C209.38 253.89 223.89 245.66 227.87 236.66C231.08 229.51 236 218.66 237.3 214.66Z" fill="#2F73DA"/>
<path d="M217.64 235.52C217.458 234.774 217.364 234.008 217.36 233.24C217.239 231.41 217.001 229.59 216.65 227.79C216.289 226.002 215.659 224.279 214.78 222.68C214.1 221.47 213.51 220.81 213.58 220.75C214.208 221.211 214.73 221.8 215.11 222.48C216.112 224.072 216.813 225.835 217.18 227.68C217.545 229.504 217.733 231.36 217.74 233.22C217.803 233.988 217.769 234.761 217.64 235.52Z" fill="#263238"/>
<path d="M221.92 228.37C221.83 228.37 221.76 227.63 221.4 226.5C220.923 225.035 220.124 223.695 219.06 222.58C218.076 221.407 216.688 220.647 215.17 220.45C214.54 220.454 213.915 220.562 213.32 220.77C213.26 220.77 213.87 220.11 215.18 220.07C216 220.114 216.801 220.326 217.536 220.692C218.27 221.059 218.922 221.572 219.45 222.2C220.577 223.369 221.377 224.814 221.77 226.39C221.976 227.029 222.028 227.707 221.92 228.37Z" fill="#263238"/>
<path d="M178.25 184.27C178.147 184.417 178.026 184.552 177.89 184.67L177.44 185.13C177.28 185.34 177.09 185.56 176.88 185.81C175.725 187.27 174.866 188.941 174.35 190.73C173.581 193.379 173.393 196.162 173.8 198.89C174.005 200.499 174.425 202.073 175.05 203.57C175.76 205.176 176.551 206.745 177.42 208.27C181 214.56 184.69 220 187.35 223.93C188.67 225.83 189.76 227.39 190.57 228.54C190.985 229.09 191.372 229.661 191.73 230.25C191.73 230.25 191.59 230.13 191.36 229.86C191.13 229.59 190.8 229.2 190.36 228.67C189.53 227.67 188.36 226.08 187 224.15C183.408 219.113 180.071 213.9 177 208.53C176.118 206.991 175.32 205.405 174.61 203.78C173.962 202.252 173.521 200.645 173.3 199C172.912 196.2 173.148 193.349 173.99 190.65C174.547 188.832 175.477 187.149 176.72 185.71L177.33 185.06L177.82 184.63C178.09 184.36 178.23 184.25 178.25 184.27Z" fill="#263238"/>
<path d="M178.28 276.19C178.144 276.275 177.995 276.339 177.84 276.38L176.52 276.84C175.95 277.04 175.25 277.26 174.42 277.48C173.59 277.7 172.65 278 171.6 278.22C169.136 278.809 166.643 279.267 164.13 279.59C157.968 280.397 151.728 280.417 145.56 279.65C143.049 279.334 140.556 278.89 138.09 278.32C137.03 278.1 136.09 277.82 135.26 277.59C134.43 277.36 133.73 277.16 133.15 276.96L131.84 276.51C131.54 276.41 131.38 276.34 131.39 276.32C131.553 276.335 131.713 276.365 131.87 276.41L133.21 276.76C133.79 276.92 134.5 277.11 135.34 277.3C136.18 277.49 137.11 277.75 138.17 277.94C140.27 278.4 142.8 278.81 145.62 279.15C148.685 279.487 151.766 279.657 154.85 279.66C157.931 279.637 161.009 279.45 164.07 279.1C166.89 278.75 169.41 278.32 171.51 277.85C172.57 277.65 173.51 277.39 174.34 277.19C175.17 276.99 175.88 276.8 176.46 276.64L177.8 276.28C177.954 276.223 178.116 276.193 178.28 276.19Z" fill="#263238"/>
<g opacity="0.3">
<path opacity="0.3" d="M123.82 238.91L126.67 234.48L125.18 199.59L123.82 238.91Z" fill="black"/>
</g>
<g opacity="0.3">
<path opacity="0.3" d="M173.13 197.23C173.13 197.23 173.22 209.94 176.13 214.98C179.04 220.02 186 230.9 186 230.25C186 229.6 185.61 221.25 185.61 221.25C185.61 221.25 173.19 204.34 173.13 197.23Z" fill="black"/>
</g>
<path d="M121.29 240C121.011 240.157 120.7 240.25 120.38 240.27C119.505 240.365 118.62 240.248 117.8 239.93C116.588 239.469 115.497 238.737 114.61 237.79C113.56 236.625 112.663 235.332 111.94 233.94C111.235 232.56 110.447 231.224 109.58 229.94C108.862 228.928 107.98 228.042 106.97 227.32C106.015 226.689 104.939 226.263 103.81 226.07C104.14 226.003 104.48 226.003 104.81 226.07C105.672 226.211 106.496 226.527 107.23 227C108.305 227.712 109.249 228.606 110.02 229.64C110.915 230.918 111.724 232.254 112.44 233.64C113.144 234.995 114.003 236.264 115 237.42C115.838 238.335 116.86 239.061 118 239.55C119.039 239.983 120.173 240.138 121.29 240Z" fill="white"/>
<path d="M125.16 218.06C125.07 218.06 124.85 217.3 124.24 216.18C123.441 214.72 122.342 213.447 121.015 212.444C119.687 211.44 118.162 210.73 116.54 210.36C115.29 210.08 114.48 210.08 114.48 209.99C115.179 209.838 115.901 209.838 116.6 209.99C118.318 210.272 119.943 210.965 121.335 212.009C122.728 213.054 123.848 214.42 124.6 215.99C124.934 216.631 125.125 217.338 125.16 218.06Z" fill="white"/>
<path d="M173.36 199.33C173.36 199.33 172.67 199.2 171.43 199.1C169.676 198.979 167.914 199.138 166.21 199.57C163.679 200.232 161.24 201.206 158.95 202.47C156.33 203.84 153.56 205.58 150.42 207.02C147.467 208.398 144.282 209.209 141.03 209.41C138.378 209.564 135.718 209.318 133.14 208.68C131.408 208.26 129.731 207.642 128.14 206.84C127.57 206.57 127.14 206.3 126.87 206.14C126.6 205.98 126.44 205.87 126.45 205.85C126.46 205.83 127.09 206.15 128.23 206.65C129.836 207.373 131.511 207.932 133.23 208.32C135.777 208.897 138.394 209.102 141 208.93C144.189 208.701 147.309 207.895 150.21 206.55C153.3 205.13 156.08 203.41 158.73 202.05C161.055 200.78 163.541 199.828 166.12 199.22C167.864 198.803 169.668 198.695 171.45 198.9C171.932 198.956 172.41 199.046 172.88 199.17C173.047 199.199 173.209 199.253 173.36 199.33Z" fill="white"/>
<path d="M185.65 233.93C185.469 234.017 185.277 234.081 185.08 234.12C184.522 234.293 183.954 234.433 183.38 234.54C181.278 234.962 179.133 235.133 176.99 235.05C173.814 234.918 170.66 234.475 167.57 233.73C164.07 232.93 160.31 231.78 156.36 230.62C152.662 229.5 148.884 228.661 145.06 228.11C141.944 227.663 138.782 227.639 135.66 228.04C133.555 228.312 131.498 228.877 129.55 229.72C128.18 230.32 127.45 230.72 127.43 230.72C127.581 230.586 127.749 230.471 127.93 230.38C128.29 230.2 128.77 229.85 129.47 229.55C131.414 228.632 133.483 228.005 135.61 227.69C138.765 227.251 141.965 227.251 145.12 227.69C148.974 228.216 152.779 229.048 156.5 230.18C160.5 231.34 164.21 232.5 167.68 233.32C170.734 234.088 173.855 234.564 177 234.74C179.123 234.853 181.251 234.739 183.35 234.4C184.83 234.09 185.64 233.88 185.65 233.93Z" fill="white"/>
<path d="M186 253.71C183.362 252.528 180.554 251.772 177.68 251.47C174.558 251.22 171.418 251.327 168.32 251.79C164.81 252.27 160.99 253.07 156.96 253.79C152.93 254.51 149.07 255.21 145.51 255.52C142.364 255.839 139.192 255.819 136.05 255.46C133.929 255.208 131.844 254.708 129.84 253.97C129.13 253.73 128.61 253.44 128.25 253.29C128.059 253.219 127.878 253.125 127.71 253.01C127.71 252.96 128.49 253.3 129.91 253.78C131.918 254.432 133.99 254.871 136.09 255.09C139.208 255.414 142.352 255.414 145.47 255.09C148.99 254.76 152.84 254.09 156.87 253.33C160.9 252.57 164.72 251.78 168.26 251.33C171.393 250.875 174.569 250.801 177.72 251.11C179.846 251.34 181.929 251.865 183.91 252.67C184.448 252.888 184.972 253.138 185.48 253.42C185.663 253.498 185.837 253.595 186 253.71Z" fill="white"/>
<path d="M153.5 279.21C153.144 279.039 152.808 278.827 152.5 278.58C151.88 278.14 150.98 277.52 149.85 276.78C146.92 274.841 143.867 273.094 140.71 271.55C137.543 270.009 134.279 268.672 130.94 267.55C129.66 267.12 128.62 266.8 127.94 266.55C127.555 266.465 127.181 266.33 126.83 266.15C127.223 266.176 127.611 266.243 127.99 266.35C128.74 266.51 129.8 266.79 131.1 267.17C137.893 269.202 144.311 272.326 150.1 276.42C151.21 277.2 152.1 277.87 152.66 278.36C152.973 278.609 153.255 278.894 153.5 279.21Z" fill="white"/>
<path d="M184.28 278.87C183.649 279.344 182.938 279.7 182.18 279.92C178.549 281.211 174.566 281.089 171.02 279.58C170.291 279.304 169.614 278.905 169.02 278.4C169.757 278.643 170.481 278.924 171.19 279.24C172.939 279.844 174.77 280.182 176.62 280.24C178.472 280.289 180.321 280.049 182.1 279.53C183.43 279.17 184.24 278.79 184.28 278.87Z" fill="white"/>
<path d="M206.17 212.85C206.191 213.152 206.15 213.455 206.05 213.74C205.812 214.529 205.414 215.261 204.88 215.89C204.089 216.813 203.137 217.586 202.07 218.17C200.779 218.86 199.442 219.461 198.07 219.97C196.725 220.475 195.448 221.147 194.27 221.97C193.332 222.657 192.56 223.546 192.01 224.57C191.517 225.525 191.296 226.598 191.37 227.67C191.227 227.403 191.158 227.103 191.17 226.8C191.138 225.97 191.313 225.145 191.68 224.4C192.212 223.296 192.997 222.334 193.97 221.59C195.169 220.719 196.481 220.015 197.87 219.5C199.234 218.994 200.569 218.413 201.87 217.76C202.898 217.215 203.831 216.506 204.63 215.66C205.331 214.839 205.855 213.882 206.17 212.85Z" fill="white"/>
<path d="M193.88 191.63C193.87 191.94 193.813 192.247 193.71 192.54C193.633 192.881 193.529 193.215 193.4 193.54C193.256 193.996 193.086 194.444 192.89 194.88C192.394 196.027 191.791 197.125 191.09 198.16C190.21 199.418 189.205 200.584 188.09 201.64C186.968 202.684 185.742 203.609 184.43 204.4C183.357 205.039 182.225 205.575 181.05 206C180.602 206.168 180.144 206.312 179.68 206.43C179.353 206.534 179.019 206.614 178.68 206.67C178.38 206.751 178.071 206.791 177.76 206.79C177.76 206.69 179.03 206.44 180.97 205.65C182.09 205.188 183.17 204.637 184.2 204C186.749 202.416 188.956 200.339 190.69 197.89C191.4 196.896 192.022 195.842 192.55 194.74C193.46 192.87 193.78 191.6 193.88 191.63Z" fill="white"/>
<path d="M174.63 178.51C174.165 178.765 173.68 178.982 173.18 179.16C172.24 179.56 170.84 180.06 169.09 180.61C167.34 181.16 165.23 181.7 162.85 182.19C157.684 183.218 152.411 183.604 147.15 183.34C145.004 183.234 142.864 183.017 140.74 182.69C138.93 182.4 137.48 182.11 136.48 181.85C135.958 181.754 135.446 181.61 134.95 181.42C135.482 181.457 136.011 181.537 136.53 181.66C137.53 181.85 138.99 182.09 140.79 182.32C142.59 182.55 144.79 182.76 147.17 182.86C149.78 182.954 152.394 182.91 155 182.73C157.602 182.531 160.192 182.197 162.76 181.73C165.12 181.27 167.24 180.73 168.99 180.26C170.74 179.79 172.15 179.32 173.11 178.98C173.603 178.782 174.111 178.625 174.63 178.51Z" fill="white"/>
<path d="M213.92 222C214.092 222.312 214.213 222.65 214.28 223C214.519 223.947 214.663 224.915 214.71 225.89C214.746 229.108 214.41 232.319 213.71 235.46C213.436 237.216 212.981 238.939 212.35 240.6C211.82 241.967 211.032 243.22 210.03 244.29C209.355 245.015 208.547 245.602 207.65 246.02C207.34 246.19 207.001 246.299 206.65 246.34C207.83 245.779 208.892 244.999 209.78 244.04C210.71 242.974 211.438 241.747 211.93 240.42C212.518 238.778 212.95 237.084 213.22 235.36C213.901 232.254 214.28 229.089 214.35 225.91C214.281 224.6 214.138 223.294 213.92 222Z" fill="white"/>
<path d="M234 224.6C233.91 224.6 233.44 223.6 232.4 222.06C231.02 220.087 229.308 218.368 227.34 216.98C225.363 215.606 223.159 214.591 220.83 213.98C219.04 213.52 217.83 213.44 217.89 213.35C218.161 213.299 218.439 213.299 218.71 213.35C219.451 213.387 220.187 213.487 220.91 213.65C221.996 213.882 223.058 214.217 224.08 214.65C226.594 215.689 228.85 217.266 230.69 219.27C231.435 220.084 232.104 220.965 232.69 221.9C233.082 222.536 233.417 223.205 233.69 223.9C233.828 224.116 233.933 224.352 234 224.6Z" fill="white"/>
<g opacity="0.3">
<path opacity="0.3" d="M175.21 277C175.449 276.882 175.661 276.714 175.829 276.507C175.997 276.3 176.119 276.059 176.185 275.801C176.252 275.543 176.262 275.273 176.214 275.01C176.167 274.748 176.063 274.499 175.91 274.28C175.537 273.906 175.084 273.622 174.585 273.449C174.086 273.276 173.554 273.218 173.03 273.28C167.86 273.38 163.35 276.84 158.27 277.77C154.41 278.47 150.42 277.68 146.66 276.54C142.9 275.4 139.23 273.91 135.37 273.18C134.572 272.975 133.737 272.955 132.93 273.12C132.527 273.209 132.158 273.413 131.868 273.708C131.579 274.003 131.382 274.375 131.3 274.78C131.2 275.59 131.39 276.2 132.61 276.61C132.61 276.61 145.4 280.17 154.61 280.03C161.565 279.753 168.47 278.738 175.21 277Z" fill="black"/>
</g>
</svg>
