<svg width="15" height="15" viewBox="0 0 15 15" fill="none" xmlns="http://www.w3.org/2000/svg">
<path d="M15 6.00287C15 5.52734 14.622 5.14282 14.1566 5.14282C14.144 5.14282 14.1315 5.14382 14.1193 5.14453L14.1128 5.12075H9.70801L8.45123 1.25365L8.44003 1.25298C8.42779 0.734656 8.01239 0.316162 7.49983 0.316162C6.99714 0.316162 6.58817 0.717983 6.56135 1.22444H6.55796L5.29136 5.12075H1.05499C1.00777 5.11327 0.959882 5.10818 0.909947 5.10818C0.407587 5.10822 0 5.52328 0 6.03617C0 6.44038 0.254397 6.78311 0.607996 6.91048L3.92686 9.32144L2.59027 13.4362L2.61543 13.4549C2.58179 13.5493 2.56278 13.6512 2.56278 13.7582C2.56278 14.2517 2.95545 14.6518 3.44013 14.6518C3.65174 14.6518 3.84605 14.5747 3.99786 14.4467L4.00772 14.4548L7.4995 11.9175L11.0453 14.4939L11.0622 14.4824C11.211 14.608 11.4022 14.6841 11.6101 14.6841C12.0853 14.6841 12.4701 14.2914 12.4701 13.8077C12.4701 13.7191 12.4572 13.6342 12.4331 13.5537L12.4454 13.5462L11.0731 9.32144L14.5798 6.77325L14.5727 6.75014C14.8278 6.60138 15 6.32216 15 6.00287Z" fill="#034AB3"/>
</svg>
