<svg width="15" height="16" viewBox="0 0 15 16" fill="none" xmlns="http://www.w3.org/2000/svg">
<path d="M15 6.80503C15 6.30325 14.622 5.8975 14.1566 5.8975C14.144 5.8975 14.1315 5.89856 14.1193 5.89931L14.1128 5.87422H9.70801L8.45123 1.79367L8.44003 1.79297C8.42779 1.24604 8.01239 0.804443 7.49983 0.804443C6.99714 0.804443 6.58817 1.22844 6.56135 1.76285H6.55796L5.29136 5.87422H1.05499C1.00777 5.86633 0.959882 5.86095 0.909947 5.86095C0.407587 5.861 0 6.29897 0 6.84017C0 7.26668 0.254397 7.62833 0.607996 7.76273L3.92686 10.3068L2.59027 14.6486L2.61543 14.6683C2.58179 14.768 2.56278 14.8755 2.56278 14.9884C2.56278 15.5092 2.95545 15.9314 3.44013 15.9314C3.65174 15.9314 3.84605 15.85 3.99786 15.7149L4.00772 15.7235L7.4995 13.0461L11.0453 15.7647L11.0622 15.7525C11.211 15.8852 11.4022 15.9654 11.6101 15.9654C12.0853 15.9654 12.4701 15.5511 12.4701 15.0407C12.4701 14.9471 12.4572 14.8575 12.4331 14.7726L12.4454 14.7647L11.0731 10.3068L14.5798 7.61793L14.5727 7.59355C14.8278 7.43657 15 7.14194 15 6.80503Z" fill="#52D858"/>
</svg>
