<svg width="26" height="22" viewBox="0 0 26 22" fill="none" xmlns="http://www.w3.org/2000/svg">
<path d="M23.3285 5.26825C24.3858 4.5175 25.2753 3.58042 26 2.50142V2.50033C25.0326 2.92392 24.0034 3.20558 22.9288 3.34208C24.0338 2.68233 24.8777 1.64558 25.2742 0.3965C24.2439 1.01075 23.1064 1.44408 21.8942 1.68675C20.9159 0.644583 19.5217 0 18.0007 0C15.0497 0 12.6739 2.39525 12.6739 5.33108C12.6739 5.75358 12.7097 6.15983 12.7974 6.54658C8.36658 6.32992 4.44492 4.20658 1.81025 0.970667C1.35092 1.76908 1.08008 2.68233 1.08008 3.66492C1.08008 5.51092 2.03017 7.14675 3.44825 8.09467C2.59133 8.07842 1.75175 7.82925 1.04 7.43817V7.49667C1.04 10.0869 2.88708 12.2384 5.3105 12.7346C4.87608 12.8538 4.40375 12.9101 3.913 12.9101C3.57175 12.9101 3.22725 12.8906 2.90442 12.8191C3.5945 14.9294 5.55533 16.4818 7.8845 16.5328C6.071 17.9508 3.76783 18.8056 1.27508 18.8056C0.8385 18.8056 0.41925 18.7861 0 18.733C2.36167 20.2551 5.15883 21.125 8.177 21.125C17.5836 21.125 23.7142 13.2773 23.3285 5.26825Z" fill="#F9F9F9"/>
</svg>
