<svg width="26" height="23" viewBox="0 0 26 23" fill="none" xmlns="http://www.w3.org/2000/svg">
<path d="M25.0344 12.9261H21.4853V9.32678H25.0344C25.5677 9.32678 26 8.87108 26 8.30824C26 7.74534 25.5677 7.28936 25.0344 7.28936H21.4853V2.29517C21.4853 1.56615 21.3487 1.03106 21.0796 0.705107C20.8238 0.395022 20.4875 0.250732 20.0218 0.250732C19.5774 0.250732 19.2538 0.394027 19.0029 0.702177C18.7369 1.02846 18.6019 1.56454 18.6019 2.2955V7.28997H11.9258L9.08713 2.75739C8.84419 2.35289 8.61576 1.97397 8.39393 1.61026C8.19422 1.28271 7.99942 1.01602 7.81542 0.81689C7.65254 0.640591 7.46691 0.504152 7.2498 0.399279C7.04495 0.300598 6.78451 0.251064 6.4764 0.251064C6.08341 0.251064 5.72667 0.364672 5.38508 0.598078C5.04705 0.828942 4.81338 1.11437 4.67067 1.47073C4.5454 1.80939 4.47912 2.32834 4.47912 2.99821V7.28964H0.965212C0.432022 7.28969 0 7.74567 0 8.30851C0 8.87135 0.432022 9.32705 0.965264 9.32705H4.47917V12.9267H0.965264C0.432022 12.9267 0 13.3826 0 13.9456C0 14.5083 0.432022 14.9638 0.965264 14.9638H4.47917V20.6659C4.47917 21.3734 4.62006 21.903 4.89909 22.2396C5.16446 22.5605 5.50092 22.7095 5.95783 22.7095C6.39865 22.7095 6.73249 22.5599 7.00933 22.2383C7.29282 21.909 7.43621 21.3796 7.43621 20.666V14.9638H13.4774L16.7466 20.2535C16.9739 20.6032 17.2086 20.9561 17.4427 21.3022C17.6539 21.6129 17.8843 21.8867 18.1274 22.1154C18.3464 22.3223 18.5811 22.4739 18.8251 22.5664C19.0762 22.6618 19.3698 22.7102 19.6956 22.7102C20.5797 22.7102 21.4851 22.4246 21.4851 20.3065V14.9638H25.0343C25.5676 14.9638 25.9999 14.5076 25.9999 13.9449C26 13.3823 25.5677 12.9261 25.0344 12.9261ZM18.6019 9.32672V12.926H15.4562L13.2023 9.32672H18.6019ZM7.43627 5.19103L8.73348 7.28936H7.43627V5.19103ZM7.43627 12.9261V9.32678H9.99308L12.2179 12.9261H7.43627ZM18.6019 17.9498L16.7324 14.9638H18.6019V17.9498Z" fill="#1F2329"/>
</svg>
