<svg width="175" height="175" viewBox="0 0 175 175" fill="none" xmlns="http://www.w3.org/2000/svg">
<circle cx="87.5" cy="87.5" r="87.0239" transform="rotate(-0.314333 87.5 87.5)" fill="#034AB3"/>
<path d="M50.4126 63.3396V57.7542C50.4194 56.7808 50.8088 55.8492 51.4968 55.1606C52.1847 54.4719 53.1159 54.0816 54.0893 54.0738H120.862C122.893 54.0738 124.539 55.7231 124.539 57.7542V117.107C124.532 118.08 124.143 119.012 123.455 119.701C122.767 120.389 121.836 120.78 120.862 120.787H54.0893C53.1138 120.787 52.1787 120.398 51.4893 119.708C50.7999 119.018 50.4126 118.083 50.4126 117.107V113.375H117.126V70.011L87.4758 96.6964L50.4126 63.3396ZM43 80.018H61.5316V87.4306H43V80.018ZM43 98.5496H72.6505V105.962H43V98.5496Z" fill="white"/>
</svg>
